<svg width="94" height="83" viewBox="0 0 94 83" fill="none" xmlns="http://www.w3.org/2000/svg">
<g clip-path="url(#clip0_6758_35070)">
<path d="M47.0002 32V56.96M47.0002 63.9468V64" stroke="#008CE9" stroke-width="2" stroke-linecap="round" stroke-linejoin="round"/>
<path d="M11.2624 82H82.8458C84.5142 81.9884 86.1545 81.5737 87.6234 80.7918C89.0924 80.01 90.3454 78.8849 91.2732 77.5146C92.2011 76.1443 92.7755 74.5706 92.9464 72.9305C93.1174 71.2905 92.8796 69.6341 92.2539 68.1057L55.9509 6.21291C55.0665 4.63349 53.7702 3.31699 52.1966 2.40024C50.623 1.4835 48.8296 1 47.0029 1C45.1762 1 43.3829 1.4835 41.8093 2.40024C40.2357 3.31699 38.9394 4.63349 38.055 6.21291L1.752 68.1057C1.13813 69.5991 0.894706 71.2159 1.04205 72.8212C1.18939 74.4265 1.72323 75.9737 2.599 77.3336C3.47476 78.6934 4.66704 79.8266 6.07629 80.6384C7.48554 81.4501 9.07087 81.917 10.6999 82" stroke="#008CE9" stroke-width="2" stroke-linecap="round" stroke-linejoin="round"/>
</g>
<defs>
<clipPath id="clip0_6758_35070">
<rect width="94" height="83" fill="white" transform="translate(0.000244141)"/>
</clipPath>
</defs>
</svg>
