<svg width="24" height="24" viewBox="0 0 24 24" fill="none" xmlns="http://www.w3.org/2000/svg">
<g clip-path="url(#clip0_11264_4950)">
<path d="M14 11H15C15.5304 11 16.0391 11.2107 16.4142 11.5858C16.7893 11.9609 17 12.4696 17 13V16C17 16.3978 17.158 16.7794 17.4393 17.0607C17.7206 17.342 18.1022 17.5 18.5 17.5C18.8978 17.5 19.2794 17.342 19.5607 17.0607C19.842 16.7794 20 16.3978 20 16V9" stroke="black" stroke-width="1.5" stroke-linecap="round" stroke-linejoin="round"/>
<path d="M3 20V6C3 5.46957 3.23178 4.96086 3.64436 4.58579C4.05695 4.21071 4.61652 4 5.2 4H11.8C12.3835 4 12.9431 4.21071 13.3556 4.58579C13.7682 4.96086 14 5.46957 14 6V20" stroke="black" stroke-width="1.5" stroke-linecap="round" stroke-linejoin="round"/>
<path d="M3 20H14" stroke="black" stroke-width="1.5" stroke-linecap="round" stroke-linejoin="round"/>
<path d="M3 7L14 7" stroke="black" stroke-width="1.5" stroke-linecap="round" stroke-linejoin="round"/>
<path d="M17 6H23V7.5C23 7.89782 22.7893 8.27936 22.4142 8.56066C22.0391 8.84196 21.5304 9 21 9H19C18.4696 9 17.9609 8.84196 17.5858 8.56066C17.2107 8.27936 17 7.89782 17 7.5V6Z" stroke="black" stroke-width="1.5" stroke-linecap="round" stroke-linejoin="round"/>
<path d="M20 12.5V9.5" stroke="black" stroke-width="1.5" stroke-linecap="round" stroke-linejoin="round"/>
<path d="M18 6V4" stroke="black" stroke-width="1.5" stroke-linecap="round" stroke-linejoin="round"/>
<path d="M22 6V4" stroke="black" stroke-width="1.5" stroke-linecap="round" stroke-linejoin="round"/>
<rect x="5.5" y="9.5" width="6" height="3" rx="0.5" stroke="black"/>
<line x1="7.5" y1="10" x2="7.5" y2="12" stroke="black"/>
<line x1="9.5" y1="10" x2="9.5" y2="12" stroke="black"/>
<path d="M8.5 14L7 16H10L8.5 18" stroke="black" stroke-linecap="round" stroke-linejoin="round"/>
</g>
<defs>
<clipPath id="clip0_11264_4950">
<rect width="24" height="24" fill="white"/>
</clipPath>
</defs>
</svg>
