<svg width="24" height="24" viewBox="0 0 24 24" fill="none" xmlns="http://www.w3.org/2000/svg">
<path d="M11.73 20C11.8727 20 11.992 19.9523 12.088 19.857C12.184 19.7617 12.2317 19.6427 12.231 19.5C12.2303 19.3573 12.1827 19.2383 12.088 19.143C11.9933 19.0477 11.8743 19 11.731 19H5.615C5.44833 19 5.30433 18.9487 5.183 18.846C5.061 18.7433 5 18.6087 5 18.442V11.554C5 9.68067 5.68867 8.11634 7.066 6.861C8.444 5.605 10.0887 4.977 12 4.977C13.9113 4.977 15.556 5.605 16.934 6.861C18.3113 8.11634 19 9.68067 19 11.554V16.731C19 16.873 19.0477 16.9917 19.143 17.087C19.2383 17.1823 19.3573 17.2303 19.5 17.231C19.9087 17.231 20.261 17.0927 20.557 16.816C20.8523 16.54 21 16.198 21 15.79V13.905C21 13.6063 20.903 13.3413 20.709 13.11C20.5143 12.878 20.278 12.6897 20 12.545L19.983 11.316C19.965 10.2727 19.7383 9.306 19.303 8.416C18.8677 7.526 18.2863 6.75167 17.559 6.093C16.8317 5.43434 15.9903 4.921 15.035 4.553C14.0797 4.185 13.068 4.00067 12 4C10.932 3.99934 9.921 4.18334 8.967 4.552C8.013 4.92067 7.17533 5.43334 6.454 6.09C5.73267 6.74667 5.15433 7.52 4.719 8.41C4.28367 9.3 4.04967 10.2667 4.017 11.31L4 12.513C3.73467 12.6377 3.50167 12.8053 3.301 13.016C3.10033 13.226 3 13.4783 3 13.773V15.939C3 16.2337 3.10033 16.486 3.301 16.696C3.50167 16.906 3.73467 17.0733 4 17.198V18.442C4 18.8767 4.15733 19.245 4.472 19.547C4.78667 19.849 5.16767 20 5.615 20H11.73ZM14.615 13.538C14.8217 13.538 15.0017 13.468 15.155 13.328C15.3083 13.188 15.385 13.0147 15.385 12.808C15.385 12.6013 15.3083 12.4247 15.155 12.278C15.0017 12.1313 14.8217 12.058 14.615 12.058C14.4083 12.058 14.2287 12.1313 14.076 12.278C13.9233 12.4247 13.8467 12.6013 13.846 12.808C13.8453 13.0147 13.922 13.188 14.076 13.328C14.23 13.468 14.41 13.538 14.616 13.538M9.384 13.538C9.59067 13.538 9.77067 13.468 9.924 13.328C10.0773 13.188 10.154 13.0147 10.154 12.808C10.154 12.6013 10.0773 12.4247 9.924 12.278C9.77067 12.1313 9.59067 12.058 9.384 12.058C9.17733 12.058 8.99767 12.1313 8.845 12.278C8.69233 12.4247 8.61567 12.6013 8.615 12.808C8.61433 13.0147 8.691 13.188 8.845 13.328C8.999 13.468 9.179 13.538 9.385 13.538M17.282 11.95C17.3727 10.4527 16.8903 9.17634 15.835 8.121C14.7803 7.06567 13.485 6.538 11.949 6.538C10.6583 6.538 9.51433 6.92567 8.517 7.701C7.51967 8.47634 6.911 9.49467 6.691 10.756C8.01567 10.7393 9.245 10.4013 10.379 9.742C11.513 9.08267 12.383 8.166 12.989 6.992C13.2303 8.146 13.732 9.15734 14.494 10.026C15.2567 10.8947 16.186 11.536 17.282 11.95Z" fill="black"/>
</svg>
