<svg width="25" height="24" viewBox="0 0 25 24" fill="none" xmlns="http://www.w3.org/2000/svg">
<path d="M6.49219 21C7.59676 21 8.49219 20.1046 8.49219 19C8.49219 17.8954 7.59676 17 6.49219 17C5.38762 17 4.49219 17.8954 4.49219 19C4.49219 20.1046 5.38762 21 6.49219 21Z" stroke="#222222" stroke-width="2" stroke-linecap="round" stroke-linejoin="round"/>
<path d="M17.4922 21C18.5968 21 19.4922 20.1046 19.4922 19C19.4922 17.8954 18.5968 17 17.4922 17C16.3876 17 15.4922 17.8954 15.4922 19C15.4922 20.1046 16.3876 21 17.4922 21Z" stroke="#222222" stroke-width="2" stroke-linecap="round" stroke-linejoin="round"/>
<path d="M17.4922 17H6.49219V3H4.49219" stroke="#222222" stroke-width="2" stroke-linecap="round" stroke-linejoin="round"/>
<path d="M6.49219 5L20.4922 6L19.4922 13H6.49219" stroke="#222222" stroke-width="2" stroke-linecap="round" stroke-linejoin="round"/>
</svg>
