<svg width="84" height="84" viewBox="0 0 84 84" fill="none" xmlns="http://www.w3.org/2000/svg">
<circle cx="42" cy="42" r="41" fill="#F3F3F3" stroke="white" stroke-width="2"/>
<path d="M42.0001 40.1667C46.0502 40.1667 49.3334 36.8834 49.3334 32.8333C49.3334 28.7832 46.0502 25.5 42.0001 25.5C37.95 25.5 34.6667 28.7832 34.6667 32.8333C34.6667 36.8834 37.95 40.1667 42.0001 40.1667Z" stroke="#BEBEBE" stroke-width="2" stroke-linecap="round" stroke-linejoin="round"/>
<path d="M31 58.5V54.8333C31 52.8884 31.7726 51.0232 33.1479 49.6479C34.5232 48.2726 36.3884 47.5 38.3333 47.5H45.6667C47.6116 47.5 49.4768 48.2726 50.8521 49.6479C52.2274 51.0232 53 52.8884 53 54.8333V58.5" stroke="#BEBEBE" stroke-width="2" stroke-linecap="round" stroke-linejoin="round"/>
</svg>
