<svg width="24" height="24" viewBox="0 0 24 24" fill="none" xmlns="http://www.w3.org/2000/svg">
<path d="M7 19C8.10457 19 9 18.1046 9 17C9 15.8954 8.10457 15 7 15C5.89543 15 5 15.8954 5 17C5 18.1046 5.89543 19 7 19Z" stroke="#222222" stroke-width="1.5" stroke-linecap="round" stroke-linejoin="round"/>
<path d="M17 19C18.1046 19 19 18.1046 19 17C19 15.8954 18.1046 15 17 15C15.8954 15 15 15.8954 15 17C15 18.1046 15.8954 19 17 19Z" stroke="#222222" stroke-width="1.5" stroke-linecap="round" stroke-linejoin="round"/>
<path d="M5 17H3V13M13 10V17M9 17H15M19 17H21V11M21 11H13M21 11L18 6H14.0137" stroke="#222222" stroke-width="1.5" stroke-linecap="round" stroke-linejoin="round"/>
<path d="M3 9H7" stroke="#222222" stroke-width="1.5" stroke-linecap="round" stroke-linejoin="round"/>
<g clip-path="url(#clip0_10376_84930)">
<g clip-path="url(#clip1_10376_84930)">
<circle cx="6.51367" cy="6" r="6" transform="rotate(180 6.51367 6)" fill="#222222"/>
<path d="M3.51367 6L5.51367 8L9.51367 4" stroke="white" stroke-linecap="round" stroke-linejoin="round"/>
</g>
</g>
<defs>
<clipPath id="clip0_10376_84930">
<rect width="12" height="12" fill="white" transform="translate(0.513672)"/>
</clipPath>
<clipPath id="clip1_10376_84930">
<rect x="0.513672" width="12" height="12" rx="6" fill="white"/>
</clipPath>
</defs>
</svg>
