<?xml version="1.0" encoding="UTF-8"?>
<!--Generator: Apple Native CoreSVG 232.5-->
<!DOCTYPE svg
PUBLIC "-//W3C//DTD SVG 1.1//EN"
       "http://www.w3.org/Graphics/SVG/1.1/DTD/svg11.dtd">
<svg version="1.1" xmlns="http://www.w3.org/2000/svg" xmlns:xlink="http://www.w3.org/1999/xlink" width="40.2148" height="39.8633">
 <g>
  <rect height="39.8633" opacity="0" width="40.2148" x="0" y="0"/>
  <path d="M19.9219 39.8438C30.8203 39.8438 39.8438 30.8008 39.8438 19.9219C39.8438 9.02344 30.8008 0 19.9023 0C9.02344 0 0 9.02344 0 19.9219C0 30.8008 9.04297 39.8438 19.9219 39.8438ZM19.9219 36.5234C10.7031 36.5234 3.33984 29.1406 3.33984 19.9219C3.33984 10.7031 10.6836 3.32031 19.9023 3.32031C29.1211 3.32031 36.5234 10.7031 36.5234 19.9219C36.5234 29.1406 29.1406 36.5234 19.9219 36.5234Z" fill="#ffffff" fill-opacity="0.85"/>
  <path d="M14.707 9.82422L25.1367 9.82422L25.1367 9.45312C25.1367 8.06641 24.4531 7.36328 23.0664 7.36328L16.7578 7.36328C15.3906 7.36328 14.707 8.06641 14.707 9.45312ZM18.9062 32.4805L20.918 32.4805C22.2461 32.4805 22.9688 31.7578 22.9688 30.3906L22.9688 18.0859C22.9688 16.8945 23.2227 16.0938 23.6523 15.4297L24.2578 14.4922C24.7852 13.6719 25.1367 12.9492 25.1367 12.0117L25.1367 11.0156L14.707 11.0156L14.707 12.0117C14.707 12.9492 15.0586 13.6719 15.5859 14.4922L16.1914 15.4297C16.6211 16.0938 16.8945 16.8945 16.8945 18.0859L16.8945 30.3906C16.8945 31.7578 17.5977 32.4805 18.9062 32.4805ZM18.0469 19.082C18.0469 18.0273 18.8672 17.207 19.9219 17.207C20.9766 17.207 21.7969 18.0273 21.7969 19.082L21.7969 22.2852C21.7969 23.3203 20.9766 24.1602 19.9219 24.1602C18.8672 24.1602 18.0469 23.3203 18.0469 22.2852ZM19.9219 23.4766C20.6445 23.4766 21.1133 22.9492 21.1133 22.2852C21.1133 21.6211 20.6055 21.0742 19.9219 21.0742C19.2578 21.0742 18.7305 21.6211 18.7305 22.2852C18.7305 22.9492 19.2383 23.4766 19.9219 23.4766Z" fill="#ffffff" fill-opacity="0.85"/>
 </g>
</svg>
