<svg width="33" height="32" viewBox="0 0 33 32" fill="none" xmlns="http://www.w3.org/2000/svg">
<g clip-path="url(#clip0_12004_122685)">
<path d="M4.75 16C4.75 17.5759 5.06039 19.1363 5.66345 20.5922C6.2665 22.0481 7.15042 23.371 8.26472 24.4853C9.37902 25.5996 10.7019 26.4835 12.1578 27.0866C13.6137 27.6896 15.1741 28 16.75 28C18.3259 28 19.8863 27.6896 21.3422 27.0866C22.7981 26.4835 24.121 25.5996 25.2353 24.4853C26.3496 23.371 27.2335 22.0481 27.8366 20.5922C28.4396 19.1363 28.75 17.5759 28.75 16C28.75 14.4241 28.4396 12.8637 27.8366 11.4078C27.2335 9.95189 26.3496 8.62902 25.2353 7.51472C24.121 6.40042 22.7981 5.5165 21.3422 4.91345C19.8863 4.31039 18.3259 4 16.75 4C15.1741 4 13.6137 4.31039 12.1578 4.91345C10.7019 5.5165 9.37902 6.40042 8.26472 7.51472C7.15042 8.62902 6.2665 9.95189 5.66345 11.4078C5.06039 12.8637 4.75 14.4241 4.75 16Z" stroke="#222222" stroke-width="2" stroke-linecap="round" stroke-linejoin="round"/>
<path d="M12.75 13.332H12.7633" stroke="#222222" stroke-width="2" stroke-linecap="round" stroke-linejoin="round"/>
<path d="M20.75 13.332H20.7633" stroke="#222222" stroke-width="2" stroke-linecap="round" stroke-linejoin="round"/>
<path d="M13.4167 20.3343C13.8513 19.8908 14.3699 19.5385 14.9423 19.298C15.5146 19.0575 16.1292 18.9336 16.7501 18.9336C17.3709 18.9336 17.9855 19.0575 18.5579 19.298C19.1303 19.5385 19.6489 19.8908 20.0834 20.3343" stroke="#222222" stroke-width="2" stroke-linecap="round" stroke-linejoin="round"/>
</g>
<defs>
<clipPath id="clip0_12004_122685">
<rect width="32" height="32" fill="white" transform="translate(0.75)"/>
</clipPath>
</defs>
</svg>
