<?xml version="1.0" encoding="UTF-8"?>
<!--Generator: Apple Native CoreSVG 232.5-->
<!DOCTYPE svg
PUBLIC "-//W3C//DTD SVG 1.1//EN"
       "http://www.w3.org/Graphics/SVG/1.1/DTD/svg11.dtd">
<svg version="1.1" xmlns="http://www.w3.org/2000/svg" xmlns:xlink="http://www.w3.org/1999/xlink" width="58.0445" height="54.707">
 <g>
  <rect height="54.707" opacity="0" width="58.0445" x="0" y="0"/>
  <path d="M47.3816 29.2969C47.7332 29.7266 47.7136 30.2734 47.3035 30.6445L43.5144 34.4141C43.0066 34.8828 42.4207 34.9023 41.9715 34.3945C40.0381 32.291 37.3782 30.5432 34.4247 29.5291L34.471 21.8758C39.8886 23.0498 44.5566 25.8278 47.3816 29.2969ZM23.2611 29.5106C20.3226 30.5077 17.6767 32.2326 15.78 34.3359C15.2722 34.8633 14.6472 34.9219 14.1394 34.4336L10.3504 30.6445C9.92067 30.2344 9.92067 29.7266 10.2722 29.2969C13.1152 25.8237 17.7835 23.0433 23.2046 21.8715Z" fill="#ffffff" fill-opacity="0.85"/>
  <path d="M23.149 14.3452C16.2645 15.4574 10.1373 18.7096 5.27223 23.8672C4.80348 24.3555 4.13942 24.3555 3.67067 23.9062L0.311297 20.4883C-0.0793285 20.0586-0.0988597 19.5312 0.233172 19.1016C5.12922 13.0506 13.6964 8.38145 23.0946 7.00156ZM57.4207 19.1016C57.7527 19.5312 57.7722 20.0586 57.3425 20.4883L53.9832 23.8477C53.5144 24.3164 52.8699 24.3359 52.4207 23.8867C47.5985 18.7102 41.4395 15.4538 34.5166 14.3433L34.561 7.00339C43.9539 8.38794 52.5089 13.0676 57.4207 19.1016Z" fill="#ffffff" fill-opacity="0.85"/>
  <path d="M28.8269 47.9102C30.8191 47.9102 32.4402 46.2891 32.4402 44.3164C32.4402 42.3242 30.8191 40.7031 28.8269 40.7031C26.8543 40.7031 25.2332 42.3047 25.2332 44.3164C25.2332 46.2891 26.8543 47.9102 28.8269 47.9102ZM28.8465 36.582C29.9793 36.582 30.7605 35.8398 30.78 34.668C30.8386 25 30.8972 15.3125 30.9558 5.64453C30.9558 4.41406 29.9988 3.59375 28.8269 3.59375C27.6746 3.59375 26.698 4.41406 26.698 5.64453C26.7761 15.3125 26.8347 25 26.9129 34.668C26.9324 35.8398 27.7136 36.582 28.8465 36.582Z" fill="#ffffff" fill-opacity="0.85"/>
 </g>
</svg>
