<svg width="323" height="48" viewBox="0 0 323 48" fill="none" xmlns="http://www.w3.org/2000/svg">
<g filter="url(#filter0_d_13958_77774)">
<rect x="2" y="1" width="319" height="44" rx="8" fill="black"/>
<path d="M95.3426 28.1447C95.0099 28.9133 94.6161 29.6208 94.1598 30.2713C93.5378 31.158 93.0286 31.7719 92.6361 32.1127C92.0277 32.6722 91.3759 32.9587 90.6779 32.975C90.1768 32.975 89.5725 32.8324 88.8691 32.5432C88.1633 32.2553 87.5148 32.1127 86.9217 32.1127C86.2998 32.1127 85.6327 32.2553 84.9193 32.5432C84.2047 32.8324 83.629 32.9832 83.1889 32.9981C82.5196 33.0266 81.8524 32.7319 81.1864 32.1127C80.7614 31.742 80.2297 31.1064 79.5928 30.2061C78.9095 29.2446 78.3477 28.1297 77.9076 26.8587C77.4362 25.4857 77.2 24.1563 77.2 22.8692C77.2 21.3948 77.5185 20.1232 78.1566 19.0576C78.6582 18.2017 79.3253 17.5265 80.1603 17.0308C80.9954 16.5351 81.8976 16.2826 82.8693 16.2664C83.4009 16.2664 84.0981 16.4309 84.9645 16.7541C85.8284 17.0783 86.3832 17.2428 86.6264 17.2428C86.8082 17.2428 87.4245 17.0505 88.4692 16.6671C89.4571 16.3116 90.2909 16.1644 90.974 16.2224C92.8249 16.3718 94.2155 17.1014 95.1402 18.416C93.4849 19.419 92.666 20.8238 92.6823 22.626C92.6972 24.0297 93.2065 25.1979 94.2073 26.1254C94.6609 26.5558 95.1674 26.8885 95.731 27.1248C95.6087 27.4793 95.4797 27.8188 95.3426 28.1447ZM91.0975 11.4401C91.0975 12.5404 90.6956 13.5677 89.8944 14.5185C88.9275 15.6489 87.758 16.3021 86.4898 16.199C86.4736 16.067 86.4642 15.9281 86.4642 15.7821C86.4642 14.7259 86.924 13.5955 87.7406 12.6713C88.1483 12.2033 88.6667 11.8142 89.2955 11.5038C89.9229 11.1981 90.5163 11.029 91.0744 11C91.0907 11.1471 91.0975 11.2942 91.0975 11.4401V11.4401Z" fill="white"/>
<path d="M118.125 20.4205C118.064 19.8826 117.814 19.4659 117.375 19.1705C116.936 18.8712 116.383 18.7216 115.716 18.7216C115.239 18.7216 114.826 18.7973 114.477 18.9489C114.129 19.0966 113.858 19.3011 113.665 19.5625C113.475 19.8201 113.381 20.1136 113.381 20.4432C113.381 20.7197 113.445 20.9583 113.574 21.1591C113.706 21.3598 113.879 21.5284 114.091 21.6648C114.307 21.7973 114.538 21.9091 114.784 22C115.03 22.0871 115.267 22.1591 115.494 22.2159L116.631 22.5114C117.002 22.6023 117.383 22.7254 117.773 22.8807C118.163 23.036 118.525 23.2405 118.858 23.4943C119.191 23.7481 119.46 24.0625 119.665 24.4375C119.873 24.8125 119.977 25.2614 119.977 25.7841C119.977 26.4432 119.807 27.0284 119.466 27.5398C119.129 28.0511 118.638 28.4545 117.994 28.75C117.354 29.0455 116.58 29.1932 115.67 29.1932C114.799 29.1932 114.045 29.0549 113.409 28.7784C112.773 28.5019 112.275 28.1098 111.915 27.6023C111.555 27.0909 111.356 26.4848 111.318 25.7841H113.08C113.114 26.2045 113.25 26.5549 113.489 26.8352C113.731 27.1117 114.04 27.3182 114.415 27.4545C114.794 27.5871 115.208 27.6534 115.659 27.6534C116.155 27.6534 116.597 27.5758 116.983 27.4205C117.373 27.2614 117.68 27.0417 117.903 26.7614C118.127 26.4773 118.239 26.1458 118.239 25.767C118.239 25.4223 118.14 25.1402 117.943 24.9205C117.75 24.7008 117.487 24.5189 117.153 24.375C116.824 24.2311 116.451 24.1042 116.034 23.9943L114.659 23.6193C113.727 23.3655 112.989 22.9924 112.443 22.5C111.902 22.0076 111.631 21.3561 111.631 20.5455C111.631 19.875 111.813 19.2898 112.176 18.7898C112.54 18.2898 113.032 17.9015 113.653 17.625C114.275 17.3447 114.975 17.2045 115.756 17.2045C116.544 17.2045 117.239 17.3428 117.841 17.6193C118.447 17.8958 118.924 18.2765 119.273 18.7614C119.621 19.2424 119.803 19.7955 119.818 20.4205H118.125ZM121.939 29V20.2727H123.638V29H121.939ZM122.797 18.9261C122.501 18.9261 122.248 18.8277 122.036 18.6307C121.827 18.4299 121.723 18.1913 121.723 17.9148C121.723 17.6345 121.827 17.3958 122.036 17.1989C122.248 16.9981 122.501 16.8977 122.797 16.8977C123.092 16.8977 123.344 16.9981 123.553 17.1989C123.765 17.3958 123.871 17.6345 123.871 17.9148C123.871 18.1913 123.765 18.4299 123.553 18.6307C123.344 18.8277 123.092 18.9261 122.797 18.9261ZM129.582 32.4545C128.889 32.4545 128.293 32.3636 127.793 32.1818C127.296 32 126.891 31.7595 126.577 31.4602C126.262 31.161 126.027 30.8333 125.872 30.4773L127.332 29.875C127.435 30.0417 127.571 30.2178 127.741 30.4034C127.916 30.5928 128.151 30.7538 128.446 30.8864C128.745 31.0189 129.13 31.0852 129.599 31.0852C130.243 31.0852 130.776 30.928 131.196 30.6136C131.616 30.303 131.827 29.8068 131.827 29.125V27.4091H131.719C131.616 27.5947 131.469 27.8011 131.276 28.0284C131.086 28.2557 130.825 28.4527 130.491 28.6193C130.158 28.786 129.724 28.8693 129.19 28.8693C128.501 28.8693 127.88 28.7083 127.327 28.3864C126.777 28.0606 126.342 27.5814 126.02 26.9489C125.702 26.3125 125.543 25.5303 125.543 24.6023C125.543 23.6742 125.7 22.8788 126.014 22.2159C126.332 21.553 126.768 21.0455 127.321 20.6932C127.874 20.3371 128.501 20.1591 129.202 20.1591C129.743 20.1591 130.181 20.25 130.514 20.4318C130.848 20.6098 131.107 20.8182 131.293 21.0568C131.482 21.2955 131.628 21.5057 131.73 21.6875H131.855V20.2727H133.52V29.1932C133.52 29.9432 133.346 30.5587 132.997 31.0398C132.649 31.5208 132.177 31.8769 131.582 32.108C130.991 32.339 130.325 32.4545 129.582 32.4545ZM129.565 27.4602C130.054 27.4602 130.467 27.3466 130.804 27.1193C131.145 26.8883 131.402 26.5587 131.577 26.1307C131.755 25.6989 131.844 25.1818 131.844 24.5795C131.844 23.9924 131.757 23.4754 131.582 23.0284C131.408 22.5814 131.152 22.233 130.815 21.983C130.478 21.7292 130.062 21.6023 129.565 21.6023C129.054 21.6023 128.628 21.7348 128.287 22C127.946 22.2614 127.688 22.6174 127.514 23.0682C127.344 23.5189 127.259 24.0227 127.259 24.5795C127.259 25.1515 127.346 25.6534 127.52 26.0852C127.694 26.517 127.952 26.8542 128.293 27.0966C128.637 27.339 129.062 27.4602 129.565 27.4602ZM137.497 23.8182V29H135.798V20.2727H137.429V21.6932H137.537C137.738 21.2311 138.052 20.8598 138.48 20.5795C138.912 20.2992 139.455 20.1591 140.111 20.1591C140.705 20.1591 141.226 20.2841 141.673 20.5341C142.12 20.7803 142.467 21.1477 142.713 21.6364C142.959 22.125 143.082 22.7292 143.082 23.4489V29H141.384V23.6534C141.384 23.0208 141.219 22.5265 140.889 22.1705C140.56 21.8106 140.107 21.6307 139.531 21.6307C139.137 21.6307 138.787 21.7159 138.48 21.8864C138.177 22.0568 137.937 22.3068 137.759 22.6364C137.584 22.9621 137.497 23.3561 137.497 23.8182ZM149.595 29V20.2727H151.294V29H149.595ZM150.453 18.9261C150.158 18.9261 149.904 18.8277 149.692 18.6307C149.483 18.4299 149.379 18.1913 149.379 17.9148C149.379 17.6345 149.483 17.3958 149.692 17.1989C149.904 16.9981 150.158 16.8977 150.453 16.8977C150.749 16.8977 151 16.9981 151.209 17.1989C151.421 17.3958 151.527 17.6345 151.527 17.9148C151.527 18.1913 151.421 18.4299 151.209 18.6307C151 18.8277 150.749 18.9261 150.453 18.9261ZM155.278 23.8182V29H153.58V20.2727H155.21V21.6932H155.318C155.519 21.2311 155.833 20.8598 156.261 20.5795C156.693 20.2992 157.237 20.1591 157.892 20.1591C158.487 20.1591 159.008 20.2841 159.455 20.5341C159.902 20.7803 160.248 21.1477 160.494 21.6364C160.741 22.125 160.864 22.7292 160.864 23.4489V29H159.165V23.6534C159.165 23.0208 159 22.5265 158.67 22.1705C158.341 21.8106 157.888 21.6307 157.312 21.6307C156.919 21.6307 156.568 21.7159 156.261 21.8864C155.958 22.0568 155.718 22.3068 155.54 22.6364C155.366 22.9621 155.278 23.3561 155.278 23.8182ZM169.268 29L166.7 20.2727H168.456L170.166 26.6818H170.251L171.967 20.2727H173.723L175.428 26.6534H175.513L177.212 20.2727H178.967L176.405 29H174.672L172.899 22.6989H172.768L170.996 29H169.268ZM180.58 29V20.2727H182.278V29H180.58ZM181.438 18.9261C181.142 18.9261 180.888 18.8277 180.676 18.6307C180.468 18.4299 180.364 18.1913 180.364 17.9148C180.364 17.6345 180.468 17.3958 180.676 17.1989C180.888 16.9981 181.142 16.8977 181.438 16.8977C181.733 16.8977 181.985 16.9981 182.193 17.1989C182.405 17.3958 182.511 17.6345 182.511 17.9148C182.511 18.1913 182.405 18.4299 182.193 18.6307C181.985 18.8277 181.733 18.9261 181.438 18.9261ZM188.638 20.2727V21.6364H183.871V20.2727H188.638ZM185.149 18.1818H186.848V26.4375C186.848 26.767 186.897 27.0152 186.996 27.1818C187.094 27.3447 187.221 27.4564 187.376 27.517C187.536 27.5739 187.708 27.6023 187.893 27.6023C188.03 27.6023 188.149 27.5928 188.251 27.5739C188.354 27.5549 188.433 27.5398 188.49 27.5284L188.797 28.9318C188.698 28.9697 188.558 29.0076 188.376 29.0455C188.195 29.0871 187.967 29.1098 187.695 29.1136C187.248 29.1212 186.831 29.0417 186.445 28.875C186.058 28.7083 185.746 28.4508 185.507 28.1023C185.268 27.7538 185.149 27.3163 185.149 26.7898V18.1818ZM192.403 23.8182V29H190.705V17.3636H192.381V21.6932H192.489C192.693 21.2235 193.006 20.8504 193.426 20.5739C193.847 20.2973 194.396 20.1591 195.074 20.1591C195.672 20.1591 196.195 20.2822 196.642 20.5284C197.093 20.7746 197.441 21.142 197.688 21.6307C197.938 22.1155 198.062 22.7216 198.062 23.4489V29H196.364V23.6534C196.364 23.0133 196.199 22.517 195.869 22.1648C195.54 21.8087 195.081 21.6307 194.494 21.6307C194.093 21.6307 193.733 21.7159 193.415 21.8864C193.1 22.0568 192.852 22.3068 192.67 22.6364C192.492 22.9621 192.403 23.3561 192.403 23.8182ZM205.683 29H203.82L208.007 17.3636H210.036L214.223 29H212.359L209.07 19.4773H208.979L205.683 29ZM205.996 24.4432H212.041V25.9205H205.996V24.4432ZM215.767 32.2727V20.2727H217.426V21.6875H217.568C217.667 21.5057 217.809 21.2955 217.994 21.0568C218.18 20.8182 218.438 20.6098 218.767 20.4318C219.097 20.25 219.532 20.1591 220.074 20.1591C220.778 20.1591 221.407 20.3371 221.96 20.6932C222.513 21.0492 222.947 21.5625 223.261 22.233C223.58 22.9034 223.739 23.7102 223.739 24.6534C223.739 25.5966 223.581 26.4053 223.267 27.0795C222.953 27.75 222.521 28.267 221.972 28.6307C221.422 28.9905 220.795 29.1705 220.091 29.1705C219.561 29.1705 219.127 29.0814 218.79 28.9034C218.456 28.7254 218.195 28.517 218.006 28.2784C217.816 28.0398 217.67 27.8277 217.568 27.642H217.466V32.2727H215.767ZM217.432 24.6364C217.432 25.25 217.521 25.7879 217.699 26.25C217.877 26.7121 218.134 27.0739 218.472 27.3352C218.809 27.5928 219.222 27.7216 219.71 27.7216C220.218 27.7216 220.642 27.5871 220.983 27.3182C221.324 27.0455 221.581 26.6761 221.756 26.2102C221.934 25.7443 222.023 25.2197 222.023 24.6364C222.023 24.0606 221.936 23.5436 221.761 23.0852C221.591 22.6269 221.333 22.2652 220.989 22C220.648 21.7348 220.222 21.6023 219.71 21.6023C219.218 21.6023 218.801 21.7292 218.46 21.983C218.123 22.2367 217.867 22.5909 217.693 23.0455C217.519 23.5 217.432 24.0303 217.432 24.6364ZM225.642 32.2727V20.2727H227.301V21.6875H227.443C227.542 21.5057 227.684 21.2955 227.869 21.0568C228.055 20.8182 228.313 20.6098 228.642 20.4318C228.972 20.25 229.407 20.1591 229.949 20.1591C230.653 20.1591 231.282 20.3371 231.835 20.6932C232.388 21.0492 232.822 21.5625 233.136 22.233C233.455 22.9034 233.614 23.7102 233.614 24.6534C233.614 25.5966 233.456 26.4053 233.142 27.0795C232.828 27.75 232.396 28.267 231.847 28.6307C231.297 28.9905 230.67 29.1705 229.966 29.1705C229.436 29.1705 229.002 29.0814 228.665 28.9034C228.331 28.7254 228.07 28.517 227.881 28.2784C227.691 28.0398 227.545 27.8277 227.443 27.642H227.341V32.2727H225.642ZM227.307 24.6364C227.307 25.25 227.396 25.7879 227.574 26.25C227.752 26.7121 228.009 27.0739 228.347 27.3352C228.684 27.5928 229.097 27.7216 229.585 27.7216C230.093 27.7216 230.517 27.5871 230.858 27.3182C231.199 27.0455 231.456 26.6761 231.631 26.2102C231.809 25.7443 231.898 25.2197 231.898 24.6364C231.898 24.0606 231.811 23.5436 231.636 23.0852C231.466 22.6269 231.208 22.2652 230.864 22C230.523 21.7348 230.097 21.6023 229.585 21.6023C229.093 21.6023 228.676 21.7292 228.335 21.983C227.998 22.2367 227.742 22.5909 227.568 23.0455C227.394 23.5 227.307 24.0303 227.307 24.6364ZM237.216 17.3636V29H235.517V17.3636H237.216ZM243.263 29.1761C242.403 29.1761 241.662 28.9924 241.041 28.625C240.424 28.2538 239.946 27.733 239.609 27.0625C239.276 26.3883 239.109 25.5985 239.109 24.6932C239.109 23.7992 239.276 23.0114 239.609 22.3295C239.946 21.6477 240.416 21.1155 241.018 20.733C241.625 20.3504 242.333 20.1591 243.143 20.1591C243.636 20.1591 244.113 20.2405 244.575 20.4034C245.037 20.5663 245.452 20.822 245.82 21.1705C246.187 21.5189 246.477 21.9716 246.689 22.5284C246.901 23.0814 247.007 23.7538 247.007 24.5455V25.1477H240.07V23.875H245.342C245.342 23.428 245.251 23.0322 245.07 22.6875C244.888 22.339 244.632 22.0644 244.303 21.8636C243.977 21.6629 243.594 21.5625 243.155 21.5625C242.678 21.5625 242.261 21.6799 241.905 21.9148C241.553 22.1458 241.28 22.4489 241.087 22.8239C240.897 23.1951 240.803 23.5985 240.803 24.0341V25.0284C240.803 25.6117 240.905 26.108 241.109 26.517C241.318 26.9261 241.607 27.2386 241.979 27.4545C242.35 27.6667 242.784 27.7727 243.28 27.7727C243.602 27.7727 243.895 27.7273 244.161 27.6364C244.426 27.5417 244.655 27.4015 244.848 27.2159C245.041 27.0303 245.189 26.8011 245.291 26.5284L246.899 26.8182C246.77 27.2917 246.539 27.7064 246.206 28.0625C245.876 28.4148 245.462 28.6894 244.962 28.8864C244.465 29.0795 243.899 29.1761 243.263 29.1761Z" fill="white"/>
</g>
<defs>
<filter id="filter0_d_13958_77774" x="0" y="0" width="323" height="48" filterUnits="userSpaceOnUse" color-interpolation-filters="sRGB">
<feFlood flood-opacity="0" result="BackgroundImageFix"/>
<feColorMatrix in="SourceAlpha" type="matrix" values="0 0 0 0 0 0 0 0 0 0 0 0 0 0 0 0 0 0 127 0" result="hardAlpha"/>
<feOffset dy="1"/>
<feGaussianBlur stdDeviation="1"/>
<feColorMatrix type="matrix" values="0 0 0 0 0.0627451 0 0 0 0 0.0941176 0 0 0 0 0.156863 0 0 0 0.05 0"/>
<feBlend mode="normal" in2="BackgroundImageFix" result="effect1_dropShadow_13958_77774"/>
<feBlend mode="normal" in="SourceGraphic" in2="effect1_dropShadow_13958_77774" result="shape"/>
</filter>
</defs>
</svg>
