<svg width="24" height="24" viewBox="0 0 24 24" fill="none" xmlns="http://www.w3.org/2000/svg">
<path d="M19.2167 4.00472L19.3054 4L19.4142 4.0063L19.4895 4.0189L19.5924 4.04646L19.6819 4.08268L19.7655 4.12756L19.8408 4.18031L19.9094 4.23937L19.9529 4.28583L20.0215 4.37717L20.0651 4.45276C20.1044 4.5315 20.1295 4.61496 20.1403 4.70157L20.1445 4.78504C20.1445 4.84409 20.1378 4.90236 20.1245 4.95827L20.0952 5.05512L14.6304 19.289C14.5268 19.5012 14.3607 19.681 14.1517 19.8071C13.9428 19.9331 13.6998 20.0001 13.4516 20C13.2281 20.0007 13.0082 19.9468 12.8134 19.8438C12.6185 19.7407 12.4553 19.5919 12.3398 19.4118L12.2854 19.3118L9.48105 14.0346L3.90083 11.4079C3.69436 11.319 3.51629 11.1807 3.38445 11.0067C3.25261 10.8327 3.17161 10.6292 3.14955 10.4165L3.14453 10.2992C3.14453 9.85827 3.39635 9.45512 3.84812 9.22047L3.96525 9.16535L19.0385 4.04252L19.1272 4.0189L19.2167 4.00472Z" fill="black"/>
</svg>
