<svg version="1.2" xmlns="http://www.w3.org/2000/svg" viewBox="0 0 60 70" width="60" height="70">
	<title>spark8-svg</title>
	<defs>
		<clipPath clipPathUnits="userSpaceOnUse" id="cp1">
			<path d="m30 52.18c-12.35 0-22.34-9.95-22.34-22.27 0-12.32 9.99-22.27 22.34-22.27 12.35 0 22.34 9.95 22.34 22.27 0 12.32-9.99 22.27-22.34 22.27z"/>
		</clipPath>
		<clipPath clipPathUnits="userSpaceOnUse" id="cp2">
			<path d="m15.31 15.27h30.64v30.55h-30.64z"/>
		</clipPath>
	</defs>
	<style>
		.s0 { fill: #008ce9 } 
		.s1 { fill: #ffffff } 
	</style>
	<path id="Layer" class="s0" d="m49.4 50.5l-14.5 14.9c-1.3 1.3-3.1 2.1-4.9 2.1-1.8 0-3.6-0.8-4.8-2.1l-14.6-14.9c-3.8-3.9-6.5-8.9-7.5-14.4-1.1-5.4-0.5-11.1 1.5-16.2 2.1-5.1 5.6-9.5 10.2-12.6 4.5-3.1 9.8-4.8 15.2-4.8 5.4 0 10.7 1.7 15.2 4.8 4.6 3.1 8.1 7.5 10.2 12.6 2 5.1 2.6 10.8 1.5 16.2-1 5.5-3.7 10.5-7.5 14.4z"/>
	<g id="Clip-Path" clip-path="url(#cp1)">
		<g id="Layer">
		</g>
	</g>
	<g id="Clip-Path" clip-path="url(#cp2)">
		<g id="Layer">
			<path id="Layer" class="s1" d="m36.9 15.4q0.2 0.2 0.4 0.5 0.1 0.3 0 0.6l-3.5 11.2h6.4q0.3 0 0.5 0.1 0.3 0.2 0.4 0.5 0.1 0.2 0.1 0.5-0.1 0.3-0.3 0.5l-15.3 16.2q-0.2 0.3-0.6 0.3-0.3 0.1-0.6-0.1-0.3-0.2-0.4-0.5-0.1-0.3 0-0.6l3.4-11.2h-6.3q-0.3 0-0.6-0.1-0.2-0.2-0.3-0.5-0.1-0.2-0.1-0.5 0.1-0.3 0.3-0.5l15.3-16.2q0.2-0.3 0.5-0.3 0.4-0.1 0.7 0.1z"/>
		</g>
	</g>
</svg>