<svg version="1.2" xmlns="http://www.w3.org/2000/svg" viewBox="0 0 60 60" width="60" height="60">
	<title>noun-electric-meter-4857345-svg</title>
	<style>
		.s0 { fill: #000000 } 
	</style>
	<g id="Layer">
		<path id="Layer" fill-rule="evenodd" class="s0" d="m17 14.1c0-1.1 0.8-1.9 1.8-1.9h22.2c1 0 1.8 0.8 1.8 1.9v7.7c0 1-0.8 1.8-1.8 1.8h-22.2c-1 0-1.8-0.8-1.8-1.8zm9.3 5.8h1.7v-4h-1.7zm5.5 0h1.7v-3.9h-1.7zm5.4-3.9v3.9h1.9v-3.9zm-16.5 0v3.9h1.9v-3.9z"/>
		<path id="Layer" class="s0" d="m33.4 25.5c-0.8-0.7-1.9-0.8-2.6 0l-4.3 4.2c-1.1 1.1-0.2 3.2 1.3 3.2h0.3c-0.5 0.7-1.1 1.4-1.7 2.1-0.6 0.7-0.8 1.8 0 2.6 0.7 0.6 2 0.8 2.7 0 1.4-1.8 2.8-3.6 4.2-5.3 0.5-0.5 0.7-1.3 0.4-2-0.3-0.6-0.9-1.1-1.4-1.1l1-1.1c0.7-0.6 0.7-1.9 0.1-2.6z"/>
		<path id="Layer" fill-rule="evenodd" class="s0" d="m54.9 25.4c0 3.1-2.5 5.5-5.5 5.5h-0.9v10.6c0 1.1-0.9 1.9-1.9 1.9h-2.4v8.3c0 1-0.9 1.8-1.9 1.8h-24.9c-1 0-1.8-0.8-1.8-1.8v-8.3h-2.5c-1 0-1.9-0.8-1.9-1.9v-10.6h-0.7c-3.1 0-5.5-2.4-5.5-5.5 0-3.1 2.5-5.5 5.5-5.5h0.7v-11.5c0-1 0.9-1.8 1.9-1.8h4.1c9.9 0 19.6 0 29.5 0.1 1 0 1.9 0.8 1.9 1.8v11.4h0.9c3 0 5.4 2.4 5.4 5.5zm-39.8-15.1v29.3h29.7v-29.3zm-3.8 16.8v-3.6h-0.8c-1 0-1.8 0.8-1.8 1.8 0 1 0.9 1.8 1.8 1.8zm29.2 22.6v-6.4h-1.9v2.1c0 2.4-3.7 2.4-3.7 0v-2.1h-0.8v2.1c0 2.4-3.7 2.3-3.7 0v-2.1h-0.8v2.1c0 2.4-3.7 2.4-3.7 0v-2.1h-0.8v2.1c0 2.4-3.7 2.4-3.7 0v-2.1h-1.9v6.4c0 0 21 0 21 0zm10.9-24.4c0-1-0.9-1.8-1.8-1.8h-1v3.6h1c0.9 0 1.8-0.8 1.8-1.8z"/>
	</g>
</svg>