<?xml version="1.0" standalone="no"?>
<!DOCTYPE svg PUBLIC "-//W3C//DTD SVG 20010904//EN"
 "http://www.w3.org/TR/2001/REC-SVG-20010904/DTD/svg10.dtd">
<svg version="1.0" xmlns="http://www.w3.org/2000/svg"
 width="25.000000pt" height="25.000000pt" viewBox="0 0 25.000000 25.000000"
 preserveAspectRatio="xMidYMid meet">

<g transform="translate(0.000000,25.000000) scale(0.100000,-0.100000)"
fill="#000000" stroke="none">
<path d="M28 213 c-12 -31 -12 -183 1 -196 4 -4 50 -6 102 -5 l94 3 6 75 c4
47 2 88 -6 110 l-12 35 -87 3 c-86 3 -86 3 -98 -25z m185 -26 c5 -15 6 -35 3
-44 -6 -15 -8 -15 -23 0 -15 15 -17 15 -30 -1 -12 -16 -14 -16 -26 0 -12 15
-14 15 -25 0 -10 -16 -12 -16 -25 1 -13 15 -16 15 -27 2 -25 -30 -38 2 -20 50
10 25 12 26 87 23 74 -3 77 -4 86 -31z m-15 -66 c8 -1 12 -17 12 -46 0 -38 -3
-45 -19 -45 -14 0 -21 8 -23 28 -3 24 -7 27 -43 27 -36 0 -40 -3 -43 -27 -2
-20 -9 -28 -23 -28 -16 0 -19 7 -19 44 0 53 8 56 158 47z m-48 -66 c0 -20 -5
-25 -25 -25 -20 0 -25 5 -25 25 0 20 5 25 25 25 20 0 25 -5 25 -25z"/>
</g>
</svg>
