<svg width="24" height="24" viewBox="0 0 24 24" fill="none" xmlns="http://www.w3.org/2000/svg">
<path d="M17.4613 11.9003V11.9878L16.9027 11.8727C16.7073 11.8325 16.4063 11.6979 16.0137 11.4468C15.9969 11.4361 15.9801 11.4252 15.9632 11.4142C16.148 11.495 16.3395 11.5653 16.5368 11.6243L17.4613 11.9003ZM13.779 9.49313C13.8317 9.58351 13.8876 9.67205 13.9467 9.75862C13.4792 9.31288 13.0811 8.89483 12.832 8.61053L12.0405 7.70719C12.0459 7.70708 12.0514 7.70703 12.0568 7.70703C12.4271 7.70703 12.7612 7.88063 12.9547 8.1843C12.955 8.18467 12.9552 8.18503 12.9554 8.1854L13.779 9.49313ZM11.7689 7.75843L11.532 8.95974L10.7642 12.8549L10.6533 13.4171L11.1666 13.6718L13.7058 14.9319C13.8452 15.0939 13.9205 15.2976 13.9205 15.515V20.174C13.9205 20.1907 13.9143 20.2085 13.8977 20.2251C13.8809 20.2417 13.8603 20.2501 13.8381 20.2501C13.8159 20.2501 13.7953 20.2417 13.7786 20.2251C13.7619 20.2085 13.7557 20.1907 13.7557 20.174L13.7557 20.1731L13.75 15.4991L13.7494 15.0362L13.3354 14.8292L11.3354 13.8292L10.4444 13.3837L10.2626 14.3631L9.18511 20.1679C9.16991 20.214 9.12425 20.2501 9.06864 20.2501C8.98365 20.2501 8.94341 20.1798 8.9544 20.1262L8.95518 20.1222L11.3101 8.29624C11.3102 8.2958 11.3103 8.29536 11.3104 8.29492C11.3648 8.0301 11.5428 7.84331 11.7689 7.75843Z" stroke="black" stroke-width="1.5"/>
<path d="M13 5C14.1046 5 15 4.10457 15 3C15 1.89543 14.1046 1 13 1C11.8954 1 11 1.89543 11 3C11 4.10457 11.8954 5 13 5Z" stroke="#222222" stroke-width="1.5" stroke-linecap="round" stroke-linejoin="round"/>
<line x1="8.73578" y1="8.14536" x2="7.73533" y2="13.2093" stroke="black" stroke-width="1.5"/>
</svg>
