<svg width="76" height="76" viewBox="0 0 76 76" fill="none" xmlns="http://www.w3.org/2000/svg">
<rect width="76" height="76" rx="8" fill="#F3F3F3"/>
<path d="M44 30H44.0192" stroke="#D4D4D4" stroke-width="2" stroke-linecap="round" stroke-linejoin="round"/>
<path d="M48.8125 21H28.1875C24.7702 21 22 23.8542 22 27.375V48.625C22 52.1458 24.7702 55 28.1875 55H48.8125C52.2298 55 55 52.1458 55 48.625V27.375C55 23.8542 52.2298 21 48.8125 21Z" stroke="#D4D4D4" stroke-width="2" stroke-linecap="round" stroke-linejoin="round"/>
<path d="M22 43.2363L30 36.1815C30.9121 35.4075 31.9468 35 33 35C34.0532 35 35.0879 35.4075 36 36.1815L46 45" stroke="#D4D4D4" stroke-width="2" stroke-linecap="round" stroke-linejoin="round"/>
<path d="M43 41.7527L45 39.5054C45.9121 38.5192 46.9468 38 48 38C49.0532 38 50.0879 38.5192 51 39.5054L55 44" stroke="#D4D4D4" stroke-width="2" stroke-linecap="round" stroke-linejoin="round"/>
</svg>
