<svg width="24" height="24" viewBox="0 0 24 24" fill="none" xmlns="http://www.w3.org/2000/svg">
<path d="M20 13.0397C19.746 14.969 18.7947 16.74 17.324 18.0211C15.8533 19.3023 13.9641 20.0058 12.0101 20C10.056 19.9941 8.17109 19.2794 6.70812 17.9895C5.24515 16.6996 4.30443 14.923 4.06206 12.9923C3.81969 11.0615 4.29228 9.10903 5.39138 7.50024C6.49047 5.89145 8.14071 4.73668 10.0332 4.25209C11.9257 3.76749 13.9306 3.9863 15.6728 4.86756C17.4149 5.74881 18.7748 7.23209 19.4979 9.03974M20 5L20 9.03974L16 9.03974" stroke="#AAAAAA" stroke-width="2" stroke-linecap="round" stroke-linejoin="round"/>
<path d="M12 8V12.375L15 15" stroke="#AAAAAA" stroke-width="2" stroke-linecap="round" stroke-linejoin="round"/>
</svg>
