<svg width="57" height="56" viewBox="0 0 57 56" fill="none" xmlns="http://www.w3.org/2000/svg">
<rect x="9.5" y="17" width="38" height="32" rx="1" fill="#D4D4D4" stroke="white" stroke-width="2"/>
<path d="M4.5 17V19.75C4.5 21.938 5.34285 24.0365 6.84315 25.5836C8.34344 27.1308 10.3783 28 12.5 28C14.6217 28 16.6566 27.1308 18.1569 25.5836C19.6571 24.0365 20.5 21.938 20.5 19.75V17H4.5ZM36.5 19.75C36.5 21.938 37.3429 24.0365 38.8431 25.5836C40.3434 27.1308 42.3783 28 44.5 28C46.6217 28 48.6566 27.1308 50.1569 25.5836C51.6571 24.0365 52.5 21.938 52.5 19.75V17H4.5L9.83333 6H47.1667L52.5 17" fill="#D4D4D4"/>
<path d="M4.5 17V19.75C4.5 21.938 5.34285 24.0365 6.84315 25.5836C8.34344 27.1308 10.3783 28 12.5 28C14.6217 28 16.6566 27.1308 18.1569 25.5836C19.6571 24.0365 20.5 21.938 20.5 19.75M4.5 17H20.5V19.75M4.5 17H52.5M4.5 17L9.83333 6H47.1667L52.5 17M20.5 19.75C20.5 21.938 21.3429 24.0365 22.8431 25.5836C24.3434 27.1308 26.3783 28 28.5 28C30.6217 28 32.6566 27.1308 34.1569 25.5836C35.6571 24.0365 36.5 21.938 36.5 19.75M36.5 19.75V17M36.5 19.75C36.5 21.938 37.3429 24.0365 38.8431 25.5836C40.3434 27.1308 42.3783 28 44.5 28C46.6217 28 48.6566 27.1308 50.1569 25.5836C51.6571 24.0365 52.5 21.938 52.5 19.75V17" stroke="white" stroke-width="2" stroke-linecap="round" stroke-linejoin="round"/>
</svg>
