<svg width="126" height="95" viewBox="0 0 126 95" fill="none" xmlns="http://www.w3.org/2000/svg">
<path d="M2.50585 23.3104C7.09434 31.2084 17.0877 32.4777 22.9711 25.9336C24.2942 24.4669 25.8143 21.8154 26.4054 19.9255C26.7151 18.9382 26.7714 23.9591 26.7995 52.6459L26.8277 86.5229L25.392 87.0024C24.6038 87.2845 23.8438 87.3691 23.7312 87.2563C23.1682 86.6921 22.014 82.997 21.5917 80.4301C21.2258 78.1171 21.1976 76.058 21.3665 67.2573C21.5636 56.1436 21.4228 53.8024 20.2968 50.8125C19.9872 49.9662 19.3397 48.8662 18.8893 48.3302C18.2419 47.5968 18.073 47.2019 18.2137 46.666C18.3545 46.1019 18.1856 45.7069 17.3129 44.7761L16.215 43.5914L17.144 42.6888L18.1011 41.8143V38.9372C18.1011 36.1165 18.073 36.0318 17.2847 35.2138C16.4965 34.424 16.3558 34.3958 13.8786 34.3958C9.76862 34.3958 9.40267 34.7625 9.37452 38.9936C9.37452 41.9272 9.40267 42.0682 10.1064 42.717C10.6131 43.1683 11.2324 43.4222 12.1051 43.4786L13.3437 43.5632L12.3021 44.8889C11.1198 46.4403 11.1761 46.6096 13.1185 47.7379C14.7512 48.6687 15.7646 48.8944 16.778 48.4713C17.5662 48.1328 17.6788 48.161 18.4108 49.0072C19.8746 50.6432 20.9161 55.6641 20.9161 61.0517C20.9161 62.4339 20.7754 66.1572 20.6065 69.26C20.1561 77.1581 20.7191 82.3764 22.4362 86.4101C23.0274 87.7922 22.9429 87.8486 19.8183 88.2999C14.6949 89.0615 7.17879 88.582 2.4777 87.1999L0.788682 86.6921L0.732382 52.7024C0.676081 19.4742 0.676081 18.769 1.18279 20.3486C1.46429 21.223 2.05544 22.577 2.50585 23.3104ZM30.4872 35.3831V37.7807H28.7982H27.1092V35.3831V32.9855H28.7982H30.4872V35.3831ZM17.144 35.6087C17.7351 36.3139 17.8196 36.6806 17.8196 38.768C17.8196 41.3912 17.5099 42.3503 16.5528 42.858C16.018 43.1401 15.7928 43.1401 15.3424 42.8016C14.7794 42.4067 14.7794 42.3785 15.7083 41.6451C17.6507 40.0937 17.5662 37.3576 15.5113 36.0883C14.0756 35.2138 12.6681 35.3549 11.4576 36.455C9.43082 38.3166 10.022 41.081 12.7244 42.181C13.5126 42.4913 14.0756 42.858 13.963 42.9426C13.8786 43.0555 13.1748 43.1401 12.4147 43.1401C11.3169 43.1401 10.8946 42.999 10.3598 42.4349C9.71232 41.8143 9.65602 41.5605 9.65602 38.9654C9.65602 35.0446 10.1064 34.6215 13.963 34.7343C16.2995 34.8189 16.4965 34.8753 17.144 35.6087ZM15.652 36.5678C16.4402 37.273 16.9469 38.6269 16.778 39.5578C16.6936 39.9809 16.2432 40.7143 15.7928 41.1656C13.4563 43.5068 9.48712 40.6861 10.9228 37.6961C11.7673 35.919 14.2445 35.3267 15.652 36.5678ZM168.705 40.6014C175.377 41.1092 187.284 42.2939 191.507 42.8862C196.743 43.6478 197.531 44.0145 195.673 44.9171C194.8 45.3403 194.744 45.3403 194.125 44.6633C193.505 43.9863 192.774 43.8453 191.563 44.1555C190.296 44.494 191.113 45.848 195.42 50.615C198.038 53.5204 201.613 55.9462 203.696 56.2001C204.174 56.2565 205.554 57.2719 207.552 59.0208C209.27 60.544 210.649 61.8697 210.649 61.9826C210.649 62.5185 208.481 64.1827 203.949 67.0599L199.079 70.1627L197.334 69.4575C195.786 68.8087 195.194 68.7241 192.211 68.7241C189.452 68.6959 188.551 68.8087 187.228 69.2882C183.54 70.6704 180.219 73.9142 179.233 77.0734C179.008 77.8915 178.698 80.0352 178.586 81.8687C178.473 83.8714 178.248 85.31 178.023 85.5356C177.769 85.7895 171.042 85.8741 146.438 85.8459C127.746 85.8459 115.107 85.7331 114.966 85.5638C114.825 85.4228 114.657 84.6894 114.544 83.956L114.375 82.5739L142.469 82.6585L170.535 82.7713L172.168 81.9533C173.068 81.5302 174.223 80.7404 174.729 80.2045C175.771 79.1326 182.302 69.8242 184.16 66.7496C185.708 64.2109 187.453 60.2901 188.044 58.0335C188.72 55.4385 188.326 54.4794 185.68 52.4767L183.681 50.9535L184.61 49.656C185.623 48.2174 186.721 45.4813 186.721 44.3812C186.721 43.9299 186.524 43.6196 186.102 43.4504C184.526 42.858 169.296 41.6733 159.697 41.3912C141.681 40.8835 135.854 41.4476 127.183 44.6915C121.019 47.0045 108.548 53.6614 106.24 55.918C104.241 57.8361 104.832 58.372 108.97 58.372H111.757L111.025 59.8388C110.321 61.2774 110.293 61.5312 110.209 67.3983C110.096 74.2245 110.603 80.0916 111.419 81.3327C111.673 81.7276 112.32 82.2072 112.855 82.4046C113.446 82.6021 113.868 82.9688 113.953 83.3355C114.009 83.6457 114.122 84.3227 114.206 84.8022L114.375 85.7331H112.179C110.997 85.7331 109.843 85.6203 109.618 85.4792C109.392 85.31 109.083 84.1535 108.858 82.461C108.379 79.1044 107.872 77.4119 106.606 75.1271C105.536 73.1526 102.974 70.6704 101.116 69.7396C95.9366 67.1727 89.6872 68.1035 85.3521 72.0808L84.6483 72.7577L82.0585 68.978L79.4968 65.1982L84.3387 63.3647C87.013 62.3492 90.2503 61.1645 91.5733 60.7696C94.1913 59.9516 96.19 58.908 96.4715 58.231C96.5559 58.0053 96.8093 57.8079 97.0345 57.8079C97.2597 57.8079 97.7945 57.3848 98.2731 56.8488C98.9487 56.059 99.568 55.7487 101.482 55.241C103.059 54.8179 106.352 53.3229 111.701 50.6714C116.036 48.4995 120.737 46.2147 122.116 45.5941C126.677 43.5632 134.024 41.2502 137.599 40.7143C141.906 40.0937 160.429 40.0091 168.705 40.6014ZM151.252 42.9144C151.224 43.9581 148.409 54.282 148.043 54.6487C147.621 55.1 137.937 55.8052 126.311 56.2565L121.244 56.4539L120.906 53.9717C120.54 51.0945 120.793 49.5713 121.779 48.9226C122.736 48.302 131.434 44.9454 133.799 44.3248C137.374 43.3375 142.582 42.717 148.24 42.6324C150.492 42.5759 151.252 42.6606 151.252 42.9144ZM163.638 42.9991C167.326 43.1401 175.686 43.8735 175.94 44.0991C176.052 44.1838 175.461 51.6869 175.32 52.1946C175.208 52.4767 174.87 52.787 174.532 52.8434C174.194 52.928 169.916 53.3229 165.046 53.7178C160.176 54.1409 156.094 54.5358 155.981 54.6204C155.672 54.7897 155.7 53.7178 156.206 48.0764C156.488 45.171 156.798 42.9144 156.995 42.8016C157.163 42.6888 157.698 42.6324 158.149 42.717C158.627 42.7734 161.076 42.9144 163.638 42.9991ZM179.515 44.3812C180.81 44.9171 181.148 46.0454 180.922 49.0072C180.697 51.6305 180.472 51.8843 178.389 51.8843H177.432V47.9353C177.432 44.1555 177.46 43.9863 177.995 43.9863C178.304 43.9863 179.008 44.1555 179.515 44.3812ZM184.638 44.7761C184.835 44.9171 184.638 45.6223 184.019 46.9481L183.09 48.9226L183.062 46.9199C183.062 45.8198 183.146 44.8325 183.259 44.7479C183.484 44.494 184.244 44.494 184.638 44.7761ZM194.744 46.1583C195.532 47.0609 197.784 49.5713 199.811 51.7151C203.555 55.7205 203.696 56.2001 200.656 54.3666C197.981 52.7588 194.294 49.0636 191.985 45.6787C191.31 44.7197 191.366 44.5504 192.436 44.5504C193.224 44.5504 193.59 44.8043 194.744 46.1583ZM187.397 54.7615C188.213 56.1154 187.932 57.695 186.018 62.0672C184.807 64.8597 183.512 66.947 178.783 73.8296C172.731 82.5739 173.519 82.2072 160.964 82.2072H151.702L151.336 80.5147C151.139 79.5839 150.999 76.8478 150.999 74.4502C150.97 69.4293 151.449 59.049 151.759 57.3848L151.956 56.2565L164.06 55.3538C170.732 54.8743 176.812 54.3102 177.572 54.1409C178.361 53.9717 179.993 53.2947 181.232 52.6459L183.484 51.433L185.229 52.7024C186.158 53.4075 187.144 54.3384 187.397 54.7615ZM120.315 53.7742L120.456 54.9871H118.569C117.528 54.9871 116.599 54.8743 116.486 54.7333C116.233 54.3102 116.909 53.0973 117.584 52.7588C117.894 52.6177 118.626 52.5049 119.161 52.5331C120.09 52.5895 120.146 52.6459 120.315 53.7742ZM120.512 55.8898C120.371 56.2847 119.189 56.6514 118.682 56.4539C118.485 56.3975 118.316 56.1719 118.316 55.9462C118.316 55.6641 118.682 55.5513 119.47 55.5513C120.258 55.5513 120.568 55.6641 120.512 55.8898ZM97.7382 56.5668C96.9782 57.4976 95.9366 57.7515 92.9808 57.7797C91.3481 57.7797 89.0116 57.8643 87.773 57.9489C85.9714 58.0899 85.6336 58.0617 86.0559 57.7797C86.3655 57.6104 88.702 57.2155 91.2637 56.9334C93.8253 56.6232 96.1337 56.3411 96.3589 56.2847C96.5841 56.2283 97.0908 56.1718 97.4567 56.1436C98.0197 56.1154 98.076 56.1719 97.7382 56.5668ZM151.167 57.7233C151.083 58.4848 150.858 63.3365 150.661 68.5266C150.379 76.6503 150.379 78.2864 150.745 80.148L151.167 82.3482H132.842C121.497 82.3482 114.122 82.2354 113.502 82.0661C111.842 81.6148 111.532 81.0225 111.138 77.6376C109.927 67.7086 110.575 59.3875 112.63 58.4848C112.996 58.3438 143.708 56.6514 150.238 56.4257L151.308 56.3975L151.167 57.7233ZM95.1484 58.7105C94.5572 59.19 87.8856 61.5312 87.6604 61.3338C87.6323 61.2774 87.6604 60.6004 87.773 59.8106L87.9701 58.4002L89.828 58.2874C90.8696 58.231 92.643 58.2028 93.7409 58.2028L93.7457 58.2028C95.7396 58.231 95.7672 58.2314 95.1484 58.7105ZM87.2663 60.1209C87.1537 60.9107 86.9848 61.6441 86.8722 61.7569C86.45 62.1236 78.033 65.1982 77.8923 65.0571C77.3293 64.5212 79.6657 61.3902 81.6081 60.0645C83.1845 58.9644 83.9446 58.7105 85.9151 58.6823L87.4352 58.6541L87.2663 60.1209ZM212.676 65.1418C213.07 66.3547 213.351 80.148 212.985 80.7968C212.845 81.0507 211.719 81.6994 210.48 82.2636C205.582 84.4638 205.3 84.4355 205.3 81.6994C205.3 77.9197 203.583 74.1399 200.712 71.573C200.064 71.0089 199.614 70.4729 199.67 70.4165C199.755 70.3601 201.782 69.0626 204.174 67.5394C206.567 65.988 209.101 64.2673 209.804 63.675L211.071 62.6031L211.719 63.3647C212.057 63.816 212.479 64.6058 212.676 65.1418ZM77.3011 64.6622C77.1885 65.17 76.8789 65.5649 76.4566 65.7341C75.6403 66.0444 74.9647 66.0726 74.9647 65.7623C74.9928 65.5931 77.3011 63.7314 77.4137 63.8442C77.4419 63.8442 77.3856 64.2391 77.3011 64.6622ZM81.6926 69.3164C84.2542 73.0962 84.3105 73.209 83.8883 73.886C82.0585 76.7914 81.4392 78.9069 81.4392 82.2636C81.4392 83.5329 81.3266 84.633 81.1859 84.7176C80.7918 84.9715 72.1496 82.9688 71.2207 82.4046C70.714 82.1226 70.2636 81.5584 70.1228 81.0789C69.8131 79.866 69.8131 72.1654 70.1228 71.3192C70.2917 70.9243 71.2207 69.6831 72.1778 68.5831C73.7542 66.806 74.092 66.5521 74.9647 66.5239C75.4995 66.5239 76.5129 66.2983 77.2167 65.988C77.9204 65.7059 78.6242 65.4803 78.7649 65.452C78.9338 65.452 80.2288 67.2009 81.6926 69.3164Z" fill="#585858"/>
<path fill-rule="evenodd" clip-rule="evenodd" d="M3.66001 5.20129C2.1962 7.11938 1.60504 8.33229 0.929434 10.7581C0.366428 12.8172 0.366428 13.466 0.422729 49.9098L0.50718 86.9742L2.7592 87.623C7.93885 89.118 15.5113 89.4847 21.1132 88.4692L23.14 88.1025L23.7312 89.7385C24.4349 91.6848 25.7861 93.5465 27.0247 94.2799C28.2352 94.9851 30.628 95.1825 32.4859 94.7594C34.6253 94.2799 38.7353 92.249 40.931 90.5847C43.5771 88.5538 46.8144 84.9433 49.179 81.361C51.6844 77.5812 55.1187 71.3192 56.667 67.6804C59.3413 61.503 60.8895 58.8797 63.0008 57.0181C64.5772 55.6359 66.0129 55.1564 67.8708 55.4385C70.6014 55.8334 72.403 57.3001 73.9512 60.3747C74.8802 62.2928 74.8802 62.2928 74.3735 63.0826C74.0638 63.5057 73.8386 64.3238 73.8386 64.8879C73.8386 65.7623 73.5571 66.2418 71.9807 67.9907C69.1938 71.0935 69.2501 70.9243 69.3909 76.5375C69.4472 79.4993 69.6161 81.5866 69.8413 81.9533C70.348 82.8841 71.6992 83.3919 76.5129 84.4355C81.7489 85.592 82.1711 85.5356 81.9178 83.6457C81.4392 80.2045 83.0438 75.4374 85.5492 72.7577C87.5197 70.6704 90.8414 69.0908 93.769 68.8933C101.736 68.3292 107.619 73.9989 108.351 82.9124C108.463 84.1535 108.717 85.3946 108.914 85.6767C109.252 86.128 111.307 86.1562 143.567 86.2126C162.653 86.269 178.023 86.1844 178.248 86.0434C178.727 85.7331 179.093 83.8432 179.121 81.4738C179.149 75.9734 182.527 71.4038 187.791 69.7396C189.818 69.119 190.465 69.0344 192.858 69.1472C195.138 69.26 195.898 69.4293 197.503 70.1627C201.753 72.109 204.737 76.8196 204.737 81.5866C204.737 84.8305 205.554 85.0279 210.199 82.9406C212.479 81.9251 213.351 81.3892 213.548 80.9096C213.689 80.5429 213.746 77.0452 213.661 73.1808C213.52 64.9443 213.408 64.3802 211.071 61.7851C210.227 60.826 207.975 58.6823 206.032 56.9617C204.09 55.241 200.825 52.0536 198.826 49.8534L195.138 45.8762L196.208 45.2838C198.347 44.0709 197.165 43.0837 192.774 42.4349C187.031 41.5887 169.747 40.0373 162.653 39.727C154.602 39.3885 139.57 39.7834 136.051 40.4322C133.179 40.9681 125.691 43.4504 121.525 45.2838C119.639 46.1019 114.966 48.3584 111.11 50.3047C107.253 52.2228 103.312 54.0845 102.355 54.3948C100.244 55.1 97.1471 55.6359 91.1511 56.3693C88.3079 56.7078 86.084 57.1309 85.0988 57.5258C82.903 58.372 80.2851 60.1491 79.2153 61.4748C78.3145 62.6031 78.3145 62.6031 77.4982 62.18C76.9633 61.8979 76.6537 61.5312 76.6537 61.1363C76.6537 60.1773 75.584 58.231 74.2609 56.736C72.4593 54.7333 70.151 53.746 67.2233 53.7178C65.281 53.7178 64.8024 53.8306 63.6764 54.4794C61.9874 55.4667 59.7635 57.9489 58.5249 60.1491C57.99 61.1081 56.864 63.5622 56.0195 65.5649C53.4015 71.8833 49.8546 78.512 46.8425 82.7431C40.6213 91.5438 30.9939 96.4236 26.6588 93.0106C25.9832 92.4746 24.0127 88.8359 24.0127 88.1307C24.0127 87.9615 24.6883 87.6512 25.5046 87.4255L26.9684 87.0024L27.0529 62.5185L27.1092 38.0628H28.939H30.7687V35.242V32.4213H28.939H27.1092V22.9437C27.1092 15.2995 27.0247 13.0993 26.6588 11.4633C26.1239 9.06568 24.7446 6.27316 23.1682 4.4679C22.4454 3.64526 20.8 1.9 20 1.5C19 1 15 0 11.5 0.5C8.7 0.900002 5.10667 3.80086 3.66001 5.20129ZM22.4925 25.849C29.699 18.0638 27.1092 4.66534 17.707 1.13943C16.138 0.852577 12.5 0.450981 10.5 1.13943C8.5 1.82789 5.72598 3.81451 4.58897 4.72176C2.02729 7.59891 0.844983 10.8709 0.816833 15.0738C0.788682 17.3022 0.929434 18.3177 1.43614 19.8409C2.39325 22.718 2.9844 23.7335 4.89862 25.7926C9.88122 31.1238 17.5944 31.152 22.4925 25.849ZM22.9711 25.9336C17.0877 32.4777 7.09434 31.2084 2.50585 23.3104C2.05544 22.577 1.46429 21.223 1.18279 20.3486C0.676081 18.769 0.676081 19.4742 0.732382 52.7024L0.788682 86.6921L2.4777 87.1999C7.17879 88.582 14.6949 89.0615 19.8183 88.2999C22.9429 87.8486 23.0274 87.7922 22.4362 86.4101C20.7191 82.3764 20.1561 77.1581 20.6065 69.26C20.7754 66.1572 20.9161 62.4339 20.9161 61.0517C20.9161 55.6641 19.8746 50.6432 18.4108 49.0072C17.6788 48.161 17.5662 48.1328 16.778 48.4713C15.7646 48.8944 14.7512 48.6687 13.1185 47.7379C11.1761 46.6096 11.1198 46.4403 12.3021 44.8889L13.3437 43.5632L12.1051 43.4786C11.2324 43.4222 10.6131 43.1683 10.1064 42.717C9.40267 42.0682 9.37452 41.9272 9.37452 38.9936C9.40267 34.7625 9.76862 34.3958 13.8786 34.3958C16.3558 34.3958 16.4965 34.424 17.2847 35.2138C18.073 36.0318 18.1011 36.1165 18.1011 38.9372V41.8143L17.144 42.6888L16.215 43.5914L17.3129 44.7761C18.1856 45.7069 18.3545 46.1019 18.2137 46.666C18.073 47.2019 18.2419 47.5968 18.8893 48.3302C19.3397 48.8662 19.9872 49.9662 20.2968 50.8125C21.4228 53.8024 21.5636 56.1436 21.3665 67.2573C21.1976 76.058 21.2258 78.1171 21.5917 80.4301C22.014 82.997 23.1682 86.6921 23.7312 87.2563C23.8438 87.3691 24.6038 87.2845 25.392 87.0024L26.8277 86.5229L26.7995 52.6459C26.7714 23.9591 26.7151 18.9382 26.4054 19.9255C25.8143 21.8154 24.2942 24.4669 22.9711 25.9336ZM30.4872 37.7807V35.3831V32.9855H28.7982H27.1092V35.3831V37.7807H28.7982H30.4872ZM17.8196 38.768C17.8196 36.6806 17.7351 36.3139 17.144 35.6087C16.4965 34.8753 16.2995 34.8189 13.963 34.7343C10.1064 34.6215 9.65602 35.0446 9.65602 38.9654C9.65602 41.5605 9.71232 41.8143 10.3598 42.4349C10.8946 42.999 11.3169 43.1401 12.4147 43.1401C13.1748 43.1401 13.8786 43.0555 13.963 42.9426C14.0756 42.858 13.5126 42.4913 12.7244 42.181C10.022 41.081 9.43082 38.3166 11.4576 36.455C12.6681 35.3549 14.0756 35.2138 15.5113 36.0883C17.5662 37.3576 17.6507 40.0937 15.7083 41.6451C14.7794 42.3785 14.7794 42.4067 15.3424 42.8016C15.7928 43.1401 16.018 43.1401 16.5528 42.858C17.5099 42.3503 17.8196 41.3912 17.8196 38.768ZM16.778 39.5578C16.9469 38.6269 16.4402 37.273 15.652 36.5678C14.2445 35.3267 11.7673 35.919 10.9228 37.6961C9.48712 40.6861 13.4563 43.5068 15.7928 41.1656C16.2432 40.7143 16.6936 39.9809 16.778 39.5578ZM191.507 42.8862C187.284 42.2939 175.377 41.1092 168.705 40.6014C160.429 40.0091 141.906 40.0937 137.599 40.7143C134.024 41.2502 126.677 43.5632 122.116 45.5941C120.737 46.2147 116.036 48.4995 111.701 50.6714C106.352 53.3229 103.059 54.8179 101.482 55.241C99.568 55.7487 98.9487 56.059 98.2731 56.8488C97.7945 57.3848 97.2597 57.8079 97.0345 57.8079C96.8093 57.8079 96.5559 58.0053 96.4715 58.231C96.19 58.908 94.1913 59.9516 91.5733 60.7696C90.2503 61.1645 87.013 62.3492 84.3387 63.3647L79.4968 65.1982L82.0585 68.978L84.6483 72.7577L85.3521 72.0808C89.6872 68.1035 95.9366 67.1727 101.116 69.7396C102.974 70.6704 105.536 73.1526 106.606 75.1271C107.872 77.4119 108.379 79.1044 108.858 82.461C109.083 84.1535 109.392 85.31 109.618 85.4792C109.843 85.6203 110.997 85.7331 112.179 85.7331H114.375L114.206 84.8022C114.122 84.3227 114.009 83.6457 113.953 83.3355C113.868 82.9688 113.446 82.6021 112.855 82.4046C112.32 82.2072 111.673 81.7276 111.419 81.3327C110.603 80.0916 110.096 74.2245 110.209 67.3983C110.293 61.5312 110.321 61.2774 111.025 59.8388L111.757 58.372H108.97C104.832 58.372 104.241 57.8361 106.24 55.918C108.548 53.6614 121.019 47.0045 127.183 44.6915C135.854 41.4476 141.681 40.8835 159.697 41.3912C169.296 41.6733 184.526 42.858 186.102 43.4504C186.524 43.6196 186.721 43.9299 186.721 44.3812C186.721 45.4813 185.623 48.2174 184.61 49.656L183.681 50.9535L185.68 52.4767C188.326 54.4794 188.72 55.4385 188.044 58.0335C187.453 60.2901 185.708 64.2109 184.16 66.7496C182.302 69.8242 175.771 79.1326 174.729 80.2045C174.223 80.7404 173.068 81.5302 172.168 81.9533L170.535 82.7713L142.469 82.6585L114.375 82.5739L114.544 83.956C114.657 84.6894 114.825 85.4228 114.966 85.5638C115.107 85.7331 127.746 85.8459 146.438 85.8459C171.042 85.8741 177.769 85.7895 178.023 85.5356C178.248 85.31 178.473 83.8714 178.586 81.8687C178.698 80.0352 179.008 77.8915 179.233 77.0734C180.219 73.9142 183.54 70.6704 187.228 69.2882C188.551 68.8087 189.452 68.6959 192.211 68.7241C195.194 68.7241 195.786 68.8087 197.334 69.4575L199.079 70.1627L203.949 67.0599C208.481 64.1827 210.649 62.5185 210.649 61.9826C210.649 61.8697 209.27 60.544 207.552 59.0208C205.554 57.2719 204.174 56.2565 203.696 56.2001C201.613 55.9462 198.038 53.5204 195.42 50.615C191.113 45.848 190.296 44.494 191.563 44.1555C192.774 43.8453 193.505 43.9863 194.125 44.6633C194.744 45.3403 194.8 45.3403 195.673 44.9171C197.531 44.0145 196.743 43.6478 191.507 42.8862ZM148.043 54.6487C148.409 54.282 151.224 43.9581 151.252 42.9144C151.252 42.6606 150.492 42.5759 148.24 42.6324C142.582 42.717 137.374 43.3375 133.799 44.3248C131.434 44.9454 122.736 48.302 121.779 48.9226C120.793 49.5713 120.54 51.0945 120.906 53.9717L121.244 56.4539L126.311 56.2565C137.937 55.8052 147.621 55.1 148.043 54.6487ZM175.94 44.0991C175.686 43.8735 167.326 43.1401 163.638 42.9991C161.076 42.9144 158.627 42.7734 158.149 42.717C157.698 42.6324 157.163 42.6888 156.995 42.8016C156.798 42.9144 156.488 45.171 156.206 48.0764C155.7 53.7178 155.672 54.7897 155.981 54.6204C156.094 54.5358 160.176 54.1409 165.046 53.7178C169.916 53.3229 174.194 52.928 174.532 52.8434C174.87 52.787 175.208 52.4767 175.32 52.1946C175.461 51.6869 176.052 44.1838 175.94 44.0991ZM180.922 49.0072C181.148 46.0454 180.81 44.9171 179.515 44.3812C179.008 44.1555 178.304 43.9863 177.995 43.9863C177.46 43.9863 177.432 44.1555 177.432 47.9353V51.8843H178.389C180.472 51.8843 180.697 51.6305 180.922 49.0072ZM184.019 46.9481C184.638 45.6223 184.835 44.9171 184.638 44.7761C184.244 44.494 183.484 44.494 183.259 44.7479C183.146 44.8325 183.062 45.8198 183.062 46.9199L183.09 48.9226L184.019 46.9481ZM199.811 51.7151C197.784 49.5713 195.532 47.0609 194.744 46.1583C193.59 44.8043 193.224 44.5504 192.436 44.5504C191.366 44.5504 191.31 44.7197 191.985 45.6787C194.294 49.0636 197.981 52.7588 200.656 54.3666C203.696 56.2001 203.555 55.7205 199.811 51.7151ZM186.018 62.0672C187.932 57.695 188.213 56.1154 187.397 54.7615C187.144 54.3384 186.158 53.4075 185.229 52.7024L183.484 51.433L181.232 52.6459C179.993 53.2947 178.361 53.9717 177.572 54.1409C176.812 54.3102 170.732 54.8743 164.06 55.3538L151.956 56.2565L151.759 57.3848C151.449 59.049 150.97 69.4293 150.999 74.4502C150.999 76.8478 151.139 79.5839 151.336 80.5147L151.702 82.2072H160.964C173.519 82.2072 172.731 82.5739 178.783 73.8296C183.512 66.947 184.807 64.8597 186.018 62.0672ZM120.456 54.9871L120.315 53.7742C120.146 52.6459 120.09 52.5895 119.161 52.5331C118.626 52.5049 117.894 52.6177 117.584 52.7588C116.909 53.0973 116.233 54.3102 116.486 54.7333C116.599 54.8743 117.528 54.9871 118.569 54.9871H120.456ZM118.682 56.4539C119.189 56.6514 120.371 56.2847 120.512 55.8898C120.568 55.6641 120.258 55.5513 119.47 55.5513C118.682 55.5513 118.316 55.6641 118.316 55.9462C118.316 56.1719 118.485 56.3975 118.682 56.4539ZM92.9808 57.7797C95.9366 57.7515 96.9782 57.4976 97.7382 56.5668C98.076 56.1719 98.0197 56.1154 97.4567 56.1436C97.0908 56.1718 96.5841 56.2283 96.3589 56.2847C96.1337 56.3411 93.8253 56.6232 91.2637 56.9334C88.702 57.2155 86.3655 57.6104 86.0559 57.7797C85.6336 58.0617 85.9714 58.0899 87.773 57.9489C89.0116 57.8643 91.3481 57.7797 92.9808 57.7797ZM150.661 68.5266C150.858 63.3365 151.083 58.4848 151.167 57.7233L151.308 56.3975L150.238 56.4257C143.708 56.6514 112.996 58.3438 112.63 58.4848C110.575 59.3875 109.927 67.7086 111.138 77.6376C111.532 81.0225 111.842 81.6148 113.502 82.0661C114.122 82.2354 121.497 82.3482 132.842 82.3482H151.167L150.745 80.148C150.379 78.2864 150.379 76.6503 150.661 68.5266ZM87.6604 61.3338C87.8856 61.5312 94.5572 59.19 95.1484 58.7105C95.7672 58.2314 95.7396 58.231 93.7457 58.2028L93.7409 58.2028C92.643 58.2028 90.8696 58.231 89.828 58.2874L87.9701 58.4002L87.773 59.8106C87.6604 60.6004 87.6323 61.2774 87.6604 61.3338ZM86.8722 61.7569C86.9848 61.6441 87.1537 60.9107 87.2663 60.1209L87.4352 58.6541L85.9151 58.6823C83.9446 58.7105 83.1845 58.9644 81.6081 60.0645C79.6657 61.3902 77.3293 64.5212 77.8923 65.0571C78.033 65.1982 86.45 62.1236 86.8722 61.7569ZM212.985 80.7968C213.351 80.148 213.07 66.3547 212.676 65.1418C212.479 64.6058 212.057 63.816 211.719 63.3647L211.071 62.6031L209.804 63.675C209.101 64.2673 206.567 65.988 204.174 67.5394C201.782 69.0626 199.755 70.3601 199.67 70.4165C199.614 70.4729 200.064 71.0089 200.712 71.573C203.583 74.1399 205.3 77.9197 205.3 81.6994C205.3 84.4355 205.582 84.4638 210.48 82.2636C211.719 81.6994 212.845 81.0507 212.985 80.7968ZM76.4566 65.7341C76.8789 65.5649 77.1885 65.17 77.3011 64.6622C77.3856 64.2391 77.4419 63.8442 77.4137 63.8442C77.3011 63.7314 74.9928 65.5931 74.9647 65.7623C74.9647 66.0726 75.6403 66.0444 76.4566 65.7341ZM83.8883 73.886C84.3105 73.209 84.2542 73.0962 81.6926 69.3164C80.2288 67.2009 78.9338 65.452 78.7649 65.452C78.6242 65.4803 77.9204 65.7059 77.2167 65.988C76.5129 66.2983 75.4995 66.5239 74.9647 66.5239C74.092 66.5521 73.7542 66.806 72.1778 68.5831C71.2207 69.6831 70.2917 70.9243 70.1228 71.3192C69.8131 72.1654 69.8131 79.866 70.1228 81.0789C70.2636 81.5584 70.714 82.1226 71.2207 82.4046C72.1496 82.9688 80.7918 84.9715 81.1859 84.7176C81.3266 84.633 81.4392 83.5329 81.4392 82.2636C81.4392 78.9069 82.0585 76.7914 83.8883 73.886Z" fill="#D6D6D6"/>
<path d="M13.5 29.5C20.7315 29.5 26.5 22.9533 26.5 15C26.5 7.04666 20.7315 0.5 13.5 0.5C6.26852 0.5 0.5 7.04666 0.5 15C0.5 22.9533 6.26852 29.5 13.5 29.5Z" fill="#585858" stroke="#D6D6D6"/>
<rect x="6.5" y="8.5" width="14" height="13" fill="#0099FF" stroke="black"/>
<circle cx="10.9186" cy="11.9186" r="0.918609" fill="black"/>
<circle cx="13.756" cy="11.9186" r="0.918609" fill="black"/>
<circle cx="16.5929" cy="11.9186" r="0.918609" fill="black"/>
<rect x="8.5" y="15.5" width="9.70748" height="4" rx="1.5" fill="#0099FF" stroke="black"/>
<path d="M10.7686 17V18" stroke="black" stroke-linecap="round" stroke-linejoin="round"/>
<path d="M19 17L19 18" stroke="black" stroke-linecap="round" stroke-linejoin="round"/>
<rect x="5.5" y="7.5" width="16" height="15" stroke="#0099FF"/>
<path d="M12.2562 39.0313C12.3531 39.3931 12.6167 39.5379 12.8887 39.3788C13.579 38.9354 13.4678 38.0174 12.7549 38.2084C12.3774 38.3095 12.1592 38.6696 12.2562 39.0313Z" fill="#0099FF"/>
<path d="M14.6097 39.4335C14.9525 39.6314 15.2577 39.5427 15.3422 39.2204C15.5267 38.373 14.7575 37.7699 14.3673 38.4456C14.1608 38.8033 14.2668 39.2355 14.6097 39.4335Z" fill="#0099FF"/>
<path d="M92.8121 70.6431C86.4501 72.0253 82.1712 78.1181 83.1284 84.4365C84.0855 90.8678 89.7718 95.4655 96.1901 94.9578C106.887 94.1398 111.476 81.2209 103.678 73.7741C101.792 71.9689 99.737 70.9252 97.1472 70.5021C95.0078 70.1636 94.9796 70.1636 92.8121 70.6431ZM99.3148 74.5357C101.116 75.4666 102.918 77.3283 103.734 79.1053C104.607 81.0234 104.635 84.4365 103.763 86.3546C102.918 88.2163 101.088 90.1062 99.2022 91.0088C96.9783 92.1089 93.8255 92.1371 91.5171 91.037C87.548 89.1753 85.4367 84.7186 86.4782 80.4593C87.182 77.6103 89.7155 74.9024 92.5306 73.9998C94.3603 73.3792 97.6258 73.6331 99.3148 74.5357Z" fill="#0099FF"/>
<path d="M92.8121 75.5801C91.7706 76.0032 91.8269 76.3135 93.1781 77.9495C94.8671 79.9523 95.3457 79.9805 97.0347 78.0906C98.5266 76.4263 98.6111 75.9468 97.5977 75.5801C96.725 75.2416 93.6285 75.2416 92.8121 75.5801Z" fill="#0099FF"/>
<path d="M88.2233 80.4024C87.6039 82.2358 87.9699 86.0156 88.7863 86.0156C89.2367 86.0156 91.7983 83.8155 92.1643 83.1385C92.4458 82.6308 92.2487 82.3769 90.8412 81.0511C89.9404 80.2049 89.0678 79.5279 88.8707 79.5279C88.6737 79.5279 88.3922 79.9229 88.2233 80.4024Z" fill="#0099FF"/>
<path d="M100.103 81.1076C99.2864 81.8127 98.6108 82.5743 98.6108 82.7718C98.6108 83.1385 101.651 86.0156 102.045 86.0156C102.383 86.0156 102.833 84.2386 102.805 82.941C102.749 81.0511 102.467 79.9793 101.989 79.8664C101.764 79.8382 100.891 80.3742 100.103 81.1076Z" fill="#0099FF"/>
<path d="M93.1777 87.6241C91.9391 89.0627 91.8546 89.232 92.2769 89.6551C92.8399 90.2192 96.8372 90.4731 97.7381 89.9936C98.5826 89.514 98.4981 89.1473 97.0343 87.4831C95.3734 85.5932 94.8949 85.5932 93.1777 87.6241Z" fill="#0099FF"/>
</svg>
