<?xml version="1.0" ?><svg style="enable-background:new 0 0 24 24;" version="1.1" viewBox="0 0 24 24" xml:space="preserve" xmlns="http://www.w3.org/2000/svg" xmlns:xlink="http://www.w3.org/1999/xlink"><style type="text/css">
	.st0{opacity:0.2;fill:none;stroke:#000000;stroke-width:5.000000e-02;stroke-miterlimit:10;}
</style><g id="Layer_1"/><g id="Layer_2"><g><path d="M17,3h-1c-0.6,0-1,0.4-1,1s0.4,1,1,1h1c1.1,0,2,0.9,2,2v1.1c0,0.6,0.4,1,1,1s1-0.4,1-1V7C21,4.8,19.2,3,17,3z"/><path d="M20,15c-0.6,0-1,0.4-1,1v1c0,1.1-0.9,2-2,2h-1c-0.6,0-1,0.4-1,1s0.4,1,1,1h1c2.2,0,4-1.8,4-4v-1C21,15.4,20.6,15,20,15z"/><path d="M8,19H7c-1.1,0-2-0.9-2-2v-1c0-0.6-0.4-1-1-1s-1,0.4-1,1v1c0,2.2,1.8,4,4,4h1c0.6,0,1-0.4,1-1S8.6,19,8,19z"/><path d="M4,9c0.6,0,1-0.4,1-1V7c0-1.1,0.9-2,2-2h1c0.6,0,1-0.4,1-1S8.6,3,8,3H7C4.8,3,3,4.8,3,7v1C3,8.5,3.4,9,4,9z"/><path d="M12,8c0-1.1-0.9-2-2-2H8C6.9,6,6,6.9,6,8v2c0,1.1,0.9,2,2,2h2c1.1,0,2-0.9,2-2V8z M8,10V8h2l0,2H8z"/><path d="M18,16v-2c0-1.1-0.9-2-2-2h-2c-1.1,0-2,0.9-2,2v2c0,1.1,0.9,2,2,2h2C17.1,18,18,17.1,18,16z M14,14h2l0,2h-2V14z"/><path d="M14,11h1c0.6,0,1-0.4,1-1V8h1c0.6,0,1-0.4,1-1s-0.4-1-1-1h-2c-0.6,0-1,0.4-1,1v2c-0.6,0-1,0.4-1,1S13.4,11,14,11z"/><path d="M10,13H7c-0.6,0-1,0.4-1,1s0.4,1,1,1h2v2c0,0.6,0.4,1,1,1s1-0.4,1-1v-3C11,13.4,10.6,13,10,13z"/></g></g></svg>