<svg width="24" height="24" viewBox="0 0 24 24" fill="none" xmlns="http://www.w3.org/2000/svg">
<path d="M9.00006 4H5.00001C4.44772 4 4 4.44772 4 5.00001V9.00006C4 9.55235 4.44772 10.0001 5.00001 10.0001H9.00006C9.55235 10.0001 10.0001 9.55235 10.0001 9.00006V5.00001C10.0001 4.44772 9.55235 4 9.00006 4Z" stroke="#222222" stroke-width="2" stroke-linecap="round" stroke-linejoin="round"/>
<path d="M7 17V17.0111" stroke="#222222" stroke-width="2" stroke-linecap="round" stroke-linejoin="round"/>
<path d="M19.0001 4H15C14.4477 4 14 4.44772 14 5.00001V9.00006C14 9.55235 14.4477 10.0001 15 10.0001H19.0001C19.5523 10.0001 20.0001 9.55235 20.0001 9.00006V5.00001C20.0001 4.44772 19.5523 4 19.0001 4Z" stroke="#222222" stroke-width="2" stroke-linecap="round" stroke-linejoin="round"/>
<path d="M7 7V7.01113" stroke="#222222" stroke-width="2" stroke-linecap="round" stroke-linejoin="round"/>
<path d="M9.00006 14H5.00001C4.44772 14 4 14.4477 4 15V19.0001C4 19.5523 4.44772 20.0001 5.00001 20.0001H9.00006C9.55235 20.0001 10.0001 19.5523 10.0001 19.0001V15C10.0001 14.4477 9.55235 14 9.00006 14Z" stroke="#222222" stroke-width="2" stroke-linecap="round" stroke-linejoin="round"/>
<path d="M17 7V7.01113" stroke="#222222" stroke-width="2" stroke-linecap="round" stroke-linejoin="round"/>
<path d="M14 14H17" stroke="#222222" stroke-width="2" stroke-linecap="round" stroke-linejoin="round"/>
<path d="M20 14V14.0111" stroke="#222222" stroke-width="2" stroke-linecap="round" stroke-linejoin="round"/>
<path d="M14 14V17" stroke="#222222" stroke-width="2" stroke-linecap="round" stroke-linejoin="round"/>
<path d="M14 20H17" stroke="#222222" stroke-width="2" stroke-linecap="round" stroke-linejoin="round"/>
<path d="M17 17H20" stroke="#222222" stroke-width="2" stroke-linecap="round" stroke-linejoin="round"/>
<path d="M20 17V20" stroke="#222222" stroke-width="2" stroke-linecap="round" stroke-linejoin="round"/>
</svg>
