<svg width="168" height="168" viewBox="0 0 168 168" fill="none" xmlns="http://www.w3.org/2000/svg">
<path d="M160.143 50.9651C168.904 71.1593 169.284 94.007 161.2 114.482C153.116 134.956 137.229 151.381 117.035 160.143C96.8407 168.904 73.993 169.284 53.5183 161.2C33.0435 153.116 16.6188 137.229 7.85742 117.035C-0.903993 96.8407 -1.28442 73.993 6.79983 53.5183C14.8841 33.0435 30.7708 16.6188 50.9651 7.85742C71.1593 -0.903992 94.0069 -1.28442 114.482 6.79983C134.956 14.8841 151.381 30.7708 160.143 50.9651L160.143 50.9651Z" stroke="#AAAAAA" stroke-width="2" stroke-linecap="round"/>
<path d="M84 69V93.96M84 100.947V101" stroke="#999999" stroke-width="2" stroke-linecap="round" stroke-linejoin="round"/>
<path d="M48.2621 119H119.846C121.514 118.988 123.154 118.574 124.623 117.792C126.092 117.01 127.345 115.885 128.273 114.515C129.201 113.144 129.775 111.571 129.946 109.931C130.117 108.291 129.879 106.634 129.254 105.106L92.9506 43.2129C92.0663 41.6335 90.7699 40.317 89.1963 39.4002C87.6228 38.4835 85.8294 38 84.0027 38C82.176 38 80.3826 38.4835 78.8091 39.4002C77.2355 40.317 75.9391 41.6335 75.0548 43.2129L38.7518 105.106C38.1379 106.599 37.8945 108.216 38.0418 109.821C38.1891 111.427 38.723 112.974 39.5988 114.334C40.4745 115.693 41.6668 116.827 43.076 117.638C44.4853 118.45 46.0706 118.917 47.6997 119" stroke="#999999" stroke-width="2" stroke-linecap="round" stroke-linejoin="round"/>
</svg>
