<svg width="24" height="24" viewBox="0 0 24 24" fill="none" xmlns="http://www.w3.org/2000/svg">
<path d="M17 13L15 11" stroke="#222222" stroke-width="1.5" stroke-linecap="round" stroke-linejoin="round"/>
<path d="M17 12L19 10" stroke="#222222" stroke-width="1.5" stroke-linecap="round" stroke-linejoin="round"/>
<path d="M17 21V8" stroke="#222222" stroke-width="1.5" stroke-linecap="round" stroke-linejoin="round"/>
<path d="M11.0049 9.81085C11.0345 9.33986 11.1749 8.88252 11.4146 8.47603C11.6544 8.06954 11.9867 7.72539 12.3846 7.47158C12.0359 6.85223 11.9185 6.12923 12.0532 5.43138C12.1879 4.73354 12.566 4.10619 13.1201 3.66111C13.6742 3.21602 14.3684 2.98212 15.0788 3.00107C15.7893 3.02002 16.47 3.29059 16.9996 3.76458C17.5293 3.29134 18.2097 3.02141 18.9198 3.00283C19.6299 2.98425 20.3235 3.21822 20.8772 3.6631C21.431 4.10799 21.8089 4.73493 21.9437 5.43233C22.0786 6.12973 21.9616 6.85235 21.6136 7.47158C22.0117 7.72516 22.3442 8.06919 22.5842 8.47564C22.8242 8.8821 22.9647 9.33949 22.9945 9.81055C23.0242 10.2816 22.9422 10.7531 22.7553 11.1864C22.5683 11.6198 22.2816 12.003 21.9186 12.3046C22.0235 12.7454 22.0273 13.2042 21.9296 13.6467C21.8318 14.0891 21.6351 14.5037 21.3542 14.8593C21.0734 15.2148 20.7156 15.5021 20.3078 15.6996C19.8999 15.8971 19.4527 15.9997 18.9996 15.9996L15.5 16" stroke="#222222" stroke-width="1.5" stroke-linecap="round" stroke-linejoin="round"/>
<path d="M2.75 14C2.75 13.8619 2.86193 13.75 3 13.75H11C11.1381 13.75 11.25 13.8619 11.25 14V16.25H2.75V14Z" stroke="#222222" stroke-width="1.5"/>
<mask id="path-6-inside-1_11018_120157" fill="white">
<rect x="1" y="18" width="12" height="4" rx="1"/>
</mask>
<rect x="1" y="18" width="12" height="4" rx="1" stroke="#222222" stroke-width="3" mask="url(#path-6-inside-1_11018_120157)"/>
<rect x="4.25" y="17.25" width="0.5" height="0.5" stroke="#222222" stroke-width="0.5"/>
<rect x="9.25" y="17.25" width="0.5" height="0.5" stroke="#222222" stroke-width="0.5"/>
<rect x="2.25" y="22.25" width="0.5" height="1.5" stroke="#222222" stroke-width="0.5"/>
<rect x="11.25" y="22.25" width="0.5" height="1.5" stroke="#222222" stroke-width="0.5"/>
</svg>
