<?xml version="1.0" encoding="UTF-8"?>
<svg width="1200pt" height="1200pt" version="1.1" viewBox="0 0 1200 1200" xmlns="http://www.w3.org/2000/svg">
 <g>
  <path d="m800.28 216c-24.152-0.0625-48.074 4.668-70.383 13.914-22.309 9.25-42.559 22.832-59.578 39.965l-98.398 98.398 67.922 67.922 98.398-98.398h-0.003907c22.168-22.164 54.473-30.82 84.75-22.711 30.277 8.1133 53.926 31.766 62.039 62.043 8.1133 30.277-0.54297 62.582-22.707 84.746l-98.398 98.398 67.922 67.922 98.398-98.398h-0.003907c25.758-25.688 43.309-58.445 50.43-94.117 7.1211-35.672 3.4922-72.652-10.43-106.26-13.918-33.605-37.5-62.328-67.754-82.52-30.258-20.191-65.828-30.945-102.2-30.902z"/>
  <path d="m216 984h259.92l152.16-152.28-67.797-67.797-124.2 124.08h-124.08v-124.08l124.08-124.2-67.797-67.797-152.28 152.16z"/>
  <path d="m244.14 312.01 67.883-67.883 643.86 643.86-67.883 67.883z"/>
 </g>
</svg>
