<svg width="33" height="32" viewBox="0 0 33 32" fill="none" xmlns="http://www.w3.org/2000/svg">
<g clip-path="url(#clip0_12004_122673)">
<path d="M4.25 16C4.25 17.5759 4.56039 19.1363 5.16345 20.5922C5.7665 22.0481 6.65042 23.371 7.76472 24.4853C8.87902 25.5996 10.2019 26.4835 11.6578 27.0866C13.1137 27.6896 14.6741 28 16.25 28C17.8259 28 19.3863 27.6896 20.8422 27.0866C22.2981 26.4835 23.621 25.5996 24.7353 24.4853C25.8496 23.371 26.7335 22.0481 27.3366 20.5922C27.9396 19.1363 28.25 17.5759 28.25 16C28.25 14.4241 27.9396 12.8637 27.3366 11.4078C26.7335 9.95189 25.8496 8.62902 24.7353 7.51472C23.621 6.40042 22.2981 5.5165 20.8422 4.91345C19.3863 4.31039 17.8259 4 16.25 4C14.6741 4 13.1137 4.31039 11.6578 4.91345C10.2019 5.5165 8.87902 6.40042 7.76472 7.51472C6.65042 8.62902 5.7665 9.95189 5.16345 11.4078C4.56039 12.8637 4.25 14.4241 4.25 16Z" stroke="#222222" stroke-width="2" stroke-linecap="round" stroke-linejoin="round"/>
<path d="M12.25 13.332H12.2633" stroke="#222222" stroke-width="2" stroke-linecap="round" stroke-linejoin="round"/>
<path d="M20.25 13.332H20.2633" stroke="#222222" stroke-width="2" stroke-linecap="round" stroke-linejoin="round"/>
<path d="M12.9167 20C13.3513 20.4435 13.8699 20.7958 14.4423 21.0363C15.0146 21.2768 15.6292 21.4007 16.2501 21.4007C16.8709 21.4007 17.4855 21.2768 18.0579 21.0363C18.6303 20.7958 19.1489 20.4435 19.5834 20" stroke="#222222" stroke-width="2" stroke-linecap="round" stroke-linejoin="round"/>
</g>
<defs>
<clipPath id="clip0_12004_122673">
<rect width="32" height="32" fill="white" transform="translate(0.25)"/>
</clipPath>
</defs>
</svg>
