<?xml version="1.0" encoding="UTF-8"?>
<!--Generator: Apple Native CoreSVG 232.5-->
<!DOCTYPE svg
PUBLIC "-//W3C//DTD SVG 1.1//EN"
       "http://www.w3.org/Graphics/SVG/1.1/DTD/svg11.dtd">
<svg version="1.1" xmlns="http://www.w3.org/2000/svg" xmlns:xlink="http://www.w3.org/1999/xlink" width="40.2148" height="39.8633">
 <g>
  <rect height="39.8633" opacity="0" width="40.2148" x="0" y="0"/>
  <path d="M39.8438 19.9414C39.8438 30.8398 30.8203 39.8633 19.9219 39.8633C9.04297 39.8633 0 30.8398 0 19.9414C0 9.0625 9.02344 0.0195312 19.9023 0.0195312C30.8008 0.0195312 39.8438 9.0625 39.8438 19.9414ZM14.5508 10.7617L14.5508 11.7773C14.5508 12.7734 14.9023 13.4961 15.4492 14.3359L16.0742 15.3125C16.5234 15.9961 16.7969 16.8164 16.7969 18.0469L16.7969 30.7422C16.7969 32.1484 17.5195 32.8906 18.8672 32.8906L20.957 32.8906C22.3242 32.8906 23.0664 32.1484 23.0664 30.7422L23.0664 18.0469C23.0664 16.8164 23.3203 15.9961 23.7695 15.3125L24.3945 14.3359C24.9414 13.4961 25.293 12.7734 25.293 11.7773L25.293 10.7617ZM21.8555 19.082L21.8555 22.3828C21.8555 23.4766 21.0156 24.3164 19.9219 24.3164C18.8281 24.3164 17.9883 23.4766 17.9883 22.3828L17.9883 19.082C17.9883 18.0469 18.8281 17.1484 19.9219 17.1484C21.0156 17.1484 21.8555 18.0469 21.8555 19.082ZM18.6914 19.082C18.6914 19.7852 19.2383 20.332 19.9219 20.332C20.625 20.332 21.1523 19.7852 21.1523 19.082C21.1523 18.3984 20.6641 17.8516 19.9219 17.8516C19.2188 17.8516 18.6914 18.3984 18.6914 19.082ZM16.6602 6.99219C15.2539 6.99219 14.5508 7.71484 14.5508 9.14062L14.5508 9.53125L25.293 9.53125L25.293 9.14062C25.293 7.71484 24.5898 6.99219 23.1641 6.99219Z" fill="#ffffff" fill-opacity="0.85"/>
 </g>
</svg>
